<svg width="147" height="40" viewBox="0 0 147 40" fill="none" xmlns="http://www.w3.org/2000/svg">
<path d="M85.701 24.336C85.797 24.336 85.881 24.375 85.953 24.453L86.646 25.2C86.118 25.812 85.476 26.289 84.72 26.631C83.97 26.973 83.061 27.144 81.993 27.144C81.069 27.144 80.229 26.985 79.473 26.667C78.717 26.343 78.072 25.893 77.538 25.317C77.004 24.735 76.59 24.039 76.296 23.229C76.002 22.419 75.855 21.528 75.855 20.556C75.855 19.584 76.008 18.693 76.314 17.883C76.62 17.073 77.049 16.377 77.601 15.795C78.159 15.213 78.825 14.763 79.599 14.445C80.373 14.121 81.228 13.959 82.164 13.959C83.082 13.959 83.892 14.106 84.594 14.4C85.296 14.694 85.914 15.093 86.448 15.597L85.872 16.398C85.836 16.458 85.788 16.509 85.728 16.551C85.674 16.587 85.599 16.605 85.503 16.605C85.395 16.605 85.263 16.548 85.107 16.434C84.951 16.314 84.747 16.182 84.495 16.038C84.243 15.894 83.928 15.765 83.55 15.651C83.172 15.531 82.707 15.471 82.155 15.471C81.489 15.471 80.88 15.588 80.328 15.822C79.776 16.05 79.299 16.383 78.897 16.821C78.501 17.259 78.192 17.793 77.97 18.423C77.748 19.053 77.637 19.764 77.637 20.556C77.637 21.36 77.751 22.077 77.979 22.707C78.213 23.337 78.528 23.871 78.924 24.309C79.326 24.741 79.797 25.071 80.337 25.299C80.883 25.527 81.471 25.641 82.101 25.641C82.485 25.641 82.83 25.62 83.136 25.578C83.448 25.53 83.733 25.458 83.991 25.362C84.255 25.266 84.498 25.146 84.72 25.002C84.948 24.852 85.173 24.675 85.395 24.471C85.497 24.381 85.599 24.336 85.701 24.336ZM91.9597 17.739C92.6257 17.739 93.2257 17.85 93.7597 18.072C94.2937 18.294 94.7497 18.609 95.1277 19.017C95.5057 19.425 95.7937 19.92 95.9917 20.502C96.1957 21.078 96.2977 21.723 96.2977 22.437C96.2977 23.157 96.1957 23.805 95.9917 24.381C95.7937 24.957 95.5057 25.449 95.1277 25.857C94.7497 26.265 94.2937 26.58 93.7597 26.802C93.2257 27.018 92.6257 27.126 91.9597 27.126C91.2877 27.126 90.6817 27.018 90.1417 26.802C89.6077 26.58 89.1517 26.265 88.7737 25.857C88.3957 25.449 88.1047 24.957 87.9007 24.381C87.7027 23.805 87.6037 23.157 87.6037 22.437C87.6037 21.723 87.7027 21.078 87.9007 20.502C88.1047 19.92 88.3957 19.425 88.7737 19.017C89.1517 18.609 89.6077 18.294 90.1417 18.072C90.6817 17.85 91.2877 17.739 91.9597 17.739ZM91.9597 25.875C92.8597 25.875 93.5317 25.575 93.9757 24.975C94.4197 24.369 94.6417 23.526 94.6417 22.446C94.6417 21.36 94.4197 20.514 93.9757 19.908C93.5317 19.302 92.8597 18.999 91.9597 18.999C91.5037 18.999 91.1047 19.077 90.7627 19.233C90.4267 19.389 90.1447 19.614 89.9167 19.908C89.6947 20.202 89.5267 20.565 89.4127 20.997C89.3047 21.423 89.2507 21.906 89.2507 22.446C89.2507 23.526 89.4727 24.369 89.9167 24.975C90.3667 25.575 91.0477 25.875 91.9597 25.875ZM99.9855 13.743V27H98.3835V13.743H99.9855ZM107.524 22.896C106.786 22.92 106.156 22.98 105.634 23.076C105.118 23.166 104.695 23.286 104.365 23.436C104.041 23.586 103.804 23.763 103.654 23.967C103.51 24.171 103.438 24.399 103.438 24.651C103.438 24.891 103.477 25.098 103.555 25.272C103.633 25.446 103.738 25.59 103.87 25.704C104.008 25.812 104.167 25.893 104.347 25.947C104.533 25.995 104.731 26.019 104.941 26.019C105.223 26.019 105.481 25.992 105.715 25.938C105.949 25.878 106.168 25.794 106.372 25.686C106.582 25.578 106.78 25.449 106.966 25.299C107.158 25.149 107.344 24.978 107.524 24.786V22.896ZM102.349 19.17C102.853 18.684 103.396 18.321 103.978 18.081C104.56 17.841 105.205 17.721 105.913 17.721C106.423 17.721 106.876 17.805 107.272 17.973C107.668 18.141 108.001 18.375 108.271 18.675C108.541 18.975 108.745 19.338 108.883 19.764C109.021 20.19 109.09 20.658 109.09 21.168V27H108.379C108.223 27 108.103 26.976 108.019 26.928C107.935 26.874 107.869 26.772 107.821 26.622L107.641 25.758C107.401 25.98 107.167 26.178 106.939 26.352C106.711 26.52 106.471 26.664 106.219 26.784C105.967 26.898 105.697 26.985 105.409 27.045C105.127 27.111 104.812 27.144 104.464 27.144C104.11 27.144 103.777 27.096 103.465 27C103.153 26.898 102.88 26.748 102.646 26.55C102.418 26.352 102.235 26.103 102.097 25.803C101.965 25.497 101.899 25.137 101.899 24.723C101.899 24.363 101.998 24.018 102.196 23.688C102.394 23.352 102.715 23.055 103.159 22.797C103.603 22.539 104.182 22.329 104.896 22.167C105.61 21.999 106.486 21.903 107.524 21.879V21.168C107.524 20.46 107.371 19.926 107.065 19.566C106.759 19.2 106.312 19.017 105.724 19.017C105.328 19.017 104.995 19.068 104.725 19.17C104.461 19.266 104.23 19.377 104.032 19.503C103.84 19.623 103.672 19.734 103.528 19.836C103.39 19.932 103.252 19.98 103.114 19.98C103.006 19.98 102.913 19.953 102.835 19.899C102.757 19.839 102.691 19.767 102.637 19.683L102.349 19.17ZM113.142 24.804C113.436 25.2 113.757 25.479 114.105 25.641C114.459 25.803 114.846 25.884 115.266 25.884C116.124 25.884 116.781 25.581 117.237 24.975C117.693 24.369 117.921 23.466 117.921 22.266C117.921 21.15 117.717 20.331 117.309 19.809C116.907 19.281 116.331 19.017 115.581 19.017C115.059 19.017 114.603 19.137 114.213 19.377C113.829 19.617 113.472 19.956 113.142 20.394V24.804ZM113.142 19.197C113.526 18.753 113.958 18.399 114.438 18.135C114.924 17.871 115.482 17.739 116.112 17.739C116.646 17.739 117.126 17.841 117.552 18.045C117.984 18.249 118.35 18.546 118.65 18.936C118.95 19.32 119.178 19.788 119.334 20.34C119.496 20.892 119.577 21.513 119.577 22.203C119.577 22.941 119.487 23.613 119.307 24.219C119.127 24.825 118.866 25.344 118.524 25.776C118.188 26.202 117.777 26.535 117.291 26.775C116.805 27.009 116.259 27.126 115.653 27.126C115.053 27.126 114.546 27.015 114.132 26.793C113.724 26.565 113.367 26.244 113.061 25.83L112.98 26.658C112.932 26.886 112.794 27 112.566 27H111.531V13.743H113.142V19.197ZM125.446 17.739C126.112 17.739 126.712 17.85 127.246 18.072C127.78 18.294 128.236 18.609 128.614 19.017C128.992 19.425 129.28 19.92 129.478 20.502C129.682 21.078 129.784 21.723 129.784 22.437C129.784 23.157 129.682 23.805 129.478 24.381C129.28 24.957 128.992 25.449 128.614 25.857C128.236 26.265 127.78 26.58 127.246 26.802C126.712 27.018 126.112 27.126 125.446 27.126C124.774 27.126 124.168 27.018 123.628 26.802C123.094 26.58 122.638 26.265 122.26 25.857C121.882 25.449 121.591 24.957 121.387 24.381C121.189 23.805 121.09 23.157 121.09 22.437C121.09 21.723 121.189 21.078 121.387 20.502C121.591 19.92 121.882 19.425 122.26 19.017C122.638 18.609 123.094 18.294 123.628 18.072C124.168 17.85 124.774 17.739 125.446 17.739ZM125.446 25.875C126.346 25.875 127.018 25.575 127.462 24.975C127.906 24.369 128.128 23.526 128.128 22.446C128.128 21.36 127.906 20.514 127.462 19.908C127.018 19.302 126.346 18.999 125.446 18.999C124.99 18.999 124.591 19.077 124.249 19.233C123.913 19.389 123.631 19.614 123.403 19.908C123.181 20.202 123.013 20.565 122.899 20.997C122.791 21.423 122.737 21.906 122.737 22.446C122.737 23.526 122.959 24.369 123.403 24.975C123.853 25.575 124.534 25.875 125.446 25.875ZM133.337 19.71C133.625 19.086 133.979 18.6 134.399 18.252C134.819 17.898 135.332 17.721 135.938 17.721C136.13 17.721 136.313 17.742 136.487 17.784C136.667 17.826 136.826 17.892 136.964 17.982L136.847 19.179C136.811 19.329 136.721 19.404 136.577 19.404C136.493 19.404 136.37 19.386 136.208 19.35C136.046 19.314 135.863 19.296 135.659 19.296C135.371 19.296 135.113 19.338 134.885 19.422C134.663 19.506 134.462 19.632 134.282 19.8C134.108 19.962 133.949 20.166 133.805 20.412C133.667 20.652 133.541 20.928 133.427 21.24V27H131.816V17.883H132.734C132.908 17.883 133.028 17.916 133.094 17.982C133.16 18.048 133.205 18.162 133.229 18.324L133.337 19.71ZM144.105 21.447C144.105 21.075 144.051 20.736 143.943 20.43C143.841 20.118 143.688 19.851 143.484 19.629C143.286 19.401 143.043 19.227 142.755 19.107C142.467 18.981 142.14 18.918 141.774 18.918C141.006 18.918 140.397 19.143 139.947 19.593C139.503 20.037 139.227 20.655 139.119 21.447H144.105ZM145.401 25.722C145.203 25.962 144.966 26.172 144.69 26.352C144.414 26.526 144.117 26.67 143.799 26.784C143.487 26.898 143.163 26.982 142.827 27.036C142.491 27.096 142.158 27.126 141.828 27.126C141.198 27.126 140.616 27.021 140.082 26.811C139.554 26.595 139.095 26.283 138.705 25.875C138.321 25.461 138.021 24.951 137.805 24.345C137.589 23.739 137.481 23.043 137.481 22.257C137.481 21.621 137.577 21.027 137.769 20.475C137.967 19.923 138.249 19.446 138.615 19.044C138.981 18.636 139.428 18.318 139.956 18.09C140.484 17.856 141.078 17.739 141.738 17.739C142.284 17.739 142.788 17.832 143.25 18.018C143.718 18.198 144.12 18.462 144.456 18.81C144.798 19.152 145.065 19.578 145.257 20.088C145.449 20.592 145.545 21.168 145.545 21.816C145.545 22.068 145.518 22.236 145.464 22.32C145.41 22.404 145.308 22.446 145.158 22.446H139.065C139.083 23.022 139.161 23.523 139.299 23.949C139.443 24.375 139.641 24.732 139.893 25.02C140.145 25.302 140.445 25.515 140.793 25.659C141.141 25.797 141.531 25.866 141.963 25.866C142.365 25.866 142.71 25.821 142.998 25.731C143.292 25.635 143.544 25.533 143.754 25.425C143.964 25.317 144.138 25.218 144.276 25.128C144.42 25.032 144.543 24.984 144.645 24.984C144.777 24.984 144.879 25.035 144.951 25.137L145.401 25.722Z" fill="#323232"/>
<path d="M16.4341 34.9911L16.3166 35.5652L16.4298 34.9905C16.1124 34.928 15.8042 35.1346 15.7416 35.452C15.6791 35.7697 15.8857 36.0776 16.2034 36.1401C16.2043 36.1404 16.2131 36.142 16.214 36.1423C16.2513 36.1493 16.2882 36.153 16.3248 36.153C16.6004 36.153 16.8461 35.9576 16.8995 35.6769C16.9605 35.3589 16.7521 35.0519 16.4341 34.9911Z" fill="#323232"/>
<path d="M20.9145 35.1794L20.9728 35.7623L20.9126 35.1797C20.5907 35.2127 20.3566 35.5004 20.3899 35.8224C20.4207 36.1239 20.6752 36.3485 20.9718 36.3485C20.992 36.3485 21.0124 36.3473 21.0326 36.3455L21.0487 36.3436C21.3692 36.3061 21.5965 36.0171 21.5608 35.6967C21.5248 35.3765 21.2349 35.1458 20.9145 35.1794Z" fill="#323232"/>
<path d="M18.6711 35.2532C18.6711 35.2532 18.6629 35.2529 18.6626 35.2529C18.3397 35.2383 18.0699 35.4891 18.0553 35.8123C18.0409 36.1355 18.2948 36.4092 18.618 36.4239C18.6272 36.4245 18.636 36.4245 18.6452 36.4245C18.9565 36.4245 19.2159 36.1794 19.2299 35.8651C19.2445 35.5419 18.9946 35.2679 18.6711 35.2532Z" fill="#323232"/>
<path d="M14.2699 34.3957L14.2626 34.393C13.958 34.2837 13.626 34.443 13.5167 34.7476C13.4072 35.0522 13.5689 35.3891 13.8735 35.4986C13.9391 35.5221 14.0059 35.5331 14.0716 35.5331C14.3117 35.5331 14.5373 35.3845 14.623 35.1452C14.7326 34.8407 14.5745 34.505 14.2699 34.3957Z" fill="#323232"/>
<path d="M23.1255 34.7693L23.2698 35.3373L23.1236 34.7699C22.8102 34.8505 22.6216 35.17 22.7022 35.4834C22.7703 35.7477 23.0083 35.9235 23.2692 35.9235C23.3177 35.9235 23.3669 35.9174 23.416 35.9046C23.4184 35.904 23.4288 35.9012 23.4316 35.9006C23.7425 35.8158 23.9244 35.4962 23.8414 35.1847C23.7584 34.8734 23.4377 34.6881 23.1255 34.7693Z" fill="#323232"/>
<path d="M25.2446 34.0304L25.4768 34.5681L25.2428 34.031C24.9461 34.1604 24.8103 34.5056 24.9394 34.8022C25.0356 35.0228 25.251 35.1544 25.4772 35.1544C25.555 35.1544 25.6346 35.1385 25.7106 35.1055C25.7131 35.1043 25.7225 35.1003 25.725 35.0991C26.0188 34.9664 26.1485 34.6221 26.0173 34.3276C25.8861 34.0328 25.54 33.9007 25.2446 34.0304Z" fill="#323232"/>
<path d="M12.0317 7.32029C12.1257 7.32029 12.2212 7.2977 12.3094 7.25071C12.595 7.09842 12.7027 6.7435 12.5505 6.45786C12.3982 6.17252 12.0436 6.06418 11.7579 6.21677L11.7509 6.22043C11.4656 6.37271 11.3609 6.7258 11.5132 7.01145C11.6182 7.20859 11.822 7.32029 12.0317 7.32029Z" fill="#323232"/>
<path d="M5.25526 13.8648C5.34223 13.9103 5.43531 13.9319 5.52717 13.9319C5.73805 13.9319 5.9419 13.8178 6.04658 13.6179L6.05696 13.5975C6.19978 13.3069 6.08015 12.9557 5.78962 12.8132C5.50123 12.6709 5.15272 12.7881 5.00806 13.0747C4.85853 13.361 4.969 13.7147 5.25526 13.8648Z" fill="#323232"/>
<path d="M4.42962 16.069C4.49188 16.09 4.55505 16.1001 4.61761 16.1001C4.86175 16.1001 5.08972 15.946 5.17242 15.7019L5.18005 15.6787C5.27526 15.3695 5.10162 15.0415 4.79217 14.9465C4.48547 14.8519 4.15985 15.0222 4.06189 15.3274C3.95904 15.6335 4.12353 15.9655 4.42962 16.069Z" fill="#323232"/>
<path d="M6.40921 11.8149C6.51328 11.8905 6.63382 11.9272 6.75345 11.9272C6.93442 11.9272 7.11325 11.8432 7.22769 11.6858L7.23532 11.6754C7.42331 11.4123 7.36197 11.0473 7.09952 10.8593C6.83676 10.6711 6.47055 10.7315 6.28195 10.9939L6.75406 11.3412L6.28012 10.9964C6.08969 11.2582 6.14768 11.6247 6.40921 11.8149Z" fill="#323232"/>
<path d="M10.0432 8.58578C10.1661 8.58578 10.29 8.54702 10.3959 8.46645C10.6572 8.27541 10.7136 7.9089 10.5226 7.64767C10.3312 7.38644 9.96473 7.32998 9.7038 7.52102L9.68915 7.5317C9.43158 7.72732 9.38032 8.09567 9.57593 8.35354C9.69129 8.50552 9.86616 8.58578 10.0432 8.58578Z" fill="#323232"/>
<path d="M3.90733 24.9551C3.98485 25.2069 4.21617 25.3683 4.46641 25.3683C4.52348 25.3683 4.58177 25.3598 4.63914 25.3421C4.94676 25.2478 5.1204 24.9219 5.02824 24.6136C4.94004 24.306 4.62114 24.1254 4.31077 24.2099C3.99858 24.295 3.81456 24.6173 3.8997 24.9295C3.90153 24.9356 3.9055 24.949 3.90733 24.9551Z" fill="#323232"/>
<path d="M8.27351 10.13C8.4258 10.13 8.57808 10.0711 8.69313 9.95395C8.92171 9.72507 8.92171 9.35397 8.69313 9.1254C8.46425 8.89651 8.09316 8.89651 7.86427 9.1254L7.85451 9.13516C7.62807 9.36618 7.63265 9.73666 7.86366 9.9631C7.97749 10.0748 8.1255 10.13 8.27351 10.13Z" fill="#323232"/>
<path d="M4.55389 22.4006C4.51269 22.0823 4.22186 21.8564 3.90325 21.8943C3.58221 21.9327 3.35272 22.2242 3.39086 22.5455L3.39422 22.569C3.43694 22.8602 3.68688 23.0689 3.97283 23.0689C4.00091 23.0689 4.02959 23.0668 4.05859 23.0625C4.37749 23.0161 4.59875 22.7195 4.55389 22.4006Z" fill="#323232"/>
<path d="M3.81845 20.7224C3.82455 20.7224 3.83035 20.7227 3.83615 20.7227C4.1517 20.7227 4.41232 20.4715 4.42147 20.1538L4.42209 20.1288C4.42209 19.805 4.15963 19.5428 3.83615 19.5428C3.5148 19.5428 3.25418 19.801 3.25021 20.1212C3.24166 20.444 3.49588 20.7129 3.81845 20.7224Z" fill="#323232"/>
<path d="M3.94763 18.3725C3.98272 18.3786 4.01721 18.3817 4.05169 18.3817C4.33001 18.3817 4.5769 18.1824 4.62786 17.8989C4.62939 17.8904 4.63061 17.8818 4.63183 17.8733C4.67913 17.5531 4.45788 17.2553 4.13745 17.2083C3.82098 17.1613 3.52465 17.3789 3.47369 17.6944C3.41815 18.0124 3.62994 18.3155 3.94763 18.3725Z" fill="#323232"/>
<path d="M31.5849 11.9999C31.6984 12.1647 31.8809 12.2529 32.0671 12.2529C32.1815 12.2529 32.2975 12.2193 32.3988 12.1494C32.6652 11.9663 32.7327 11.6013 32.5496 11.3346L32.0625 11.6605L32.5477 11.3318C32.3658 11.0639 32.0015 10.994 31.7338 11.1756C31.4659 11.3572 31.396 11.7216 31.5776 11.9895L31.5849 11.9999Z" fill="#323232"/>
<path d="M34.579 17.8962C34.2574 17.9322 34.026 18.2224 34.0623 18.5441L34.0654 18.5694C34.1072 18.8614 34.3581 19.0723 34.6449 19.0723C34.6724 19.0723 34.7005 19.0705 34.7285 19.0665C35.0462 19.021 35.2678 18.7284 35.2266 18.411C35.1897 18.0903 34.8985 17.8602 34.579 17.8962Z" fill="#323232"/>
<path d="M33.5903 16.2427L33.5928 16.2503C33.6679 16.5058 33.9013 16.6712 34.1546 16.6712C34.2092 16.6712 34.2648 16.6635 34.32 16.6471C34.6307 16.5558 34.8083 16.2302 34.7171 15.9195L34.7146 15.9119C34.6234 15.6012 34.2977 15.4236 33.9871 15.5152C33.6767 15.6064 33.4991 15.932 33.5903 16.2427Z" fill="#323232"/>
<path d="M32.7613 14.0518C32.8635 14.2596 33.0726 14.3807 33.2899 14.3807C33.3762 14.3807 33.4641 14.3615 33.5468 14.3206C33.837 14.1778 33.9576 13.8287 33.8145 13.5382L33.2835 13.7857L33.8139 13.5369C33.6765 13.244 33.3277 13.1179 33.0347 13.2553C32.7418 13.3926 32.6154 13.7414 32.7528 14.0344L32.7613 14.0518Z" fill="#323232"/>
<path d="M30.1106 10.17C30.2254 10.2871 30.377 10.3457 30.529 10.3457C30.677 10.3457 30.825 10.2902 30.9392 10.1782C31.1687 9.95359 31.1739 9.58646 30.9526 9.35514C30.7332 9.11862 30.3633 9.10428 30.1259 9.3234C29.8881 9.54282 29.8735 9.91361 30.0929 10.1513L30.1106 10.17Z" fill="#323232"/>
<path d="M34.7674 20.3427C34.4454 20.3345 34.176 20.5869 34.1647 20.9088C34.15 21.2296 34.3963 21.5027 34.7174 21.5207C34.7286 21.5213 34.7393 21.5216 34.7506 21.5216C35.0591 21.5216 35.3176 21.2802 35.335 20.968L35.3359 20.9439C35.3451 20.6207 35.0906 20.3522 34.7674 20.3427Z" fill="#323232"/>
<path d="M26.363 7.29279L26.377 7.30042C26.4643 7.34681 26.558 7.36878 26.6501 7.36878C26.8586 7.36878 27.0603 7.25647 27.1662 7.05964C27.3188 6.77552 27.2114 6.42029 26.9282 6.26648L26.6446 6.77918L26.9263 6.26526C26.6425 6.10962 26.2864 6.21369 26.1307 6.4975C25.9754 6.78101 26.0792 7.13745 26.363 7.29279Z" fill="#323232"/>
<path d="M28.3445 8.57785L28.3536 8.58487C28.4595 8.66513 28.5837 8.70389 28.7073 8.70389C28.8843 8.70389 29.0592 8.62394 29.1745 8.47196C29.3702 8.21408 29.3195 7.84665 29.0619 7.65104L29.058 7.64829C28.8013 7.45114 28.4336 7.49936 28.2364 7.75602C28.0393 8.01267 28.0878 8.38071 28.3445 8.57785Z" fill="#323232"/>
<path d="M39.6384 29.2133L36.8878 26.4578C36.6537 26.2234 36.3428 26.0944 36.0117 26.0944C35.6808 26.0944 35.3696 26.2234 35.1358 26.4578L35.072 26.5216L34.8914 26.3409C34.6683 26.1172 34.4955 25.8569 34.3784 25.5734C34.368 25.5359 34.3542 25.4993 34.3365 25.4648C34.2468 25.2127 34.2001 24.9445 34.2001 24.6689V23.8895C34.2535 23.9175 34.3118 23.938 34.3744 23.9487C34.408 23.9545 34.4412 23.9572 34.4742 23.9572C34.7522 23.9572 34.9982 23.7589 35.0497 23.4769C35.1123 23.1601 34.9069 22.8522 34.5898 22.7887C34.4504 22.7609 34.3124 22.785 34.1965 22.8479C34.1605 22.0154 33.8202 21.2378 33.2281 20.6445L30.5597 17.9715C29.9609 17.3718 29.1647 17.0416 28.3179 17.0416C27.6624 17.0416 27.038 17.2403 26.5112 17.608L26.228 17.3233V10.6216C26.228 9.81384 25.9348 9.03442 25.4025 8.42743C25.0238 7.99591 24.8154 7.44171 24.8154 6.86676V6.37573H24.8557C25.5386 6.37573 26.0944 5.82001 26.0944 5.13672V1.23901C26.0944 0.555725 25.5386 0 24.8557 0H13.9105C13.2275 0 12.6718 0.555725 12.6718 1.23901V5.13672C12.6718 5.82001 13.2275 6.37573 13.9105 6.37573H14.0009V6.63269C14.0009 7.2644 13.7552 7.85828 13.3093 8.30475L12.128 9.48822C11.5012 10.1163 11.156 10.9509 11.156 11.839V15.6192C11.156 16.1328 11.2793 16.6177 11.4963 17.0474C10.7193 17.0923 9.99512 17.4161 9.44031 17.9715L6.77185 20.6445C6.14502 21.2726 5.79987 22.1075 5.79987 22.9953V24.6689C5.79987 25.3006 5.5545 25.8945 5.10864 26.3409L4.93011 26.5198C4.9292 26.5204 4.92859 26.521 4.92798 26.5216L4.8645 26.4578C4.63043 26.2234 4.31946 26.0944 3.98834 26.0944C3.65753 26.0944 3.34625 26.2234 3.11249 26.4578L0.361633 29.2133C-0.120544 29.6964 -0.120544 30.4825 0.361633 30.9656L1.30371 31.9089C1.53229 32.1381 1.90338 32.1384 2.13226 31.9098C2.36115 31.6809 2.36176 31.3101 2.13287 31.0809L1.1911 30.1373C1.16455 30.1108 1.16455 30.0677 1.1911 30.0412L3.94196 27.2858C3.96759 27.2601 4.0094 27.2598 4.03503 27.2858L4.51324 27.7649H4.51355L11.0434 34.306L11.7749 35.0391C11.8015 35.0656 11.8015 35.1086 11.7749 35.1352L9.02435 37.8906C8.99841 37.9166 8.9566 37.9166 8.93097 37.8906L3.79181 32.7426C3.56323 32.5134 3.19214 32.5131 2.96326 32.7417C2.73407 32.9706 2.73376 33.3414 2.96234 33.5706L8.10181 38.7186C8.33557 38.9529 8.64685 39.082 8.97797 39.082C9.30878 39.082 9.61975 38.9529 9.85382 38.7186L12.6044 35.9631C13.0865 35.4803 13.0865 34.6942 12.6044 34.2111L12.5745 34.1812L12.9214 33.8336C13.3267 33.4274 13.8651 33.1833 14.4373 33.1464C15.2426 33.0942 16.0004 32.7505 16.5707 32.179L19.0976 29.6466C19.8264 29.4553 20.3937 28.8617 20.5478 28.1183C20.8075 28.2419 21.0977 28.3115 21.4041 28.3115C22.5061 28.3115 23.4027 27.4139 23.4027 26.3104V24.9191C23.6548 25.0342 23.9346 25.0989 24.2294 25.0989C25.3314 25.0989 26.2277 24.2014 26.2277 23.0978V18.9847L28.0301 20.7959C28.1445 20.9109 28.295 20.9683 28.4454 20.9683C28.595 20.9683 28.7445 20.9116 28.8589 20.7977C29.0881 20.5695 29.0891 20.1987 28.8608 19.9692L27.3581 18.4592C27.6489 18.299 27.9767 18.2135 28.3179 18.2135C28.8513 18.2135 29.353 18.4216 29.7302 18.7997L32.3987 21.4725C32.8046 21.8793 33.0283 22.42 33.0283 22.9953V24.6689C33.0283 25.6134 33.3954 26.5012 34.0619 27.1689L34.2438 27.3511L33.3939 28.2025L28.2535 33.3517L27.9669 33.0646C27.9639 33.0618 27.9611 33.0588 27.9581 33.056L27.9077 33.0054C27.301 32.3978 26.4951 32.0325 25.6387 31.9769C25.1178 31.9431 24.6277 31.7209 24.2569 31.3498L22.3315 29.4348C22.1021 29.2065 21.731 29.2075 21.5027 29.437C21.2747 29.6664 21.2756 30.0375 21.5051 30.2655L23.4293 32.179C23.9996 32.7505 24.7574 33.0942 25.563 33.1464C26.1349 33.1833 26.6733 33.4274 27.0786 33.8333L27.1069 33.8617C27.1222 33.8791 27.1384 33.8953 27.1555 33.9105L27.4255 34.1809L27.3956 34.2111C26.9135 34.6942 26.9135 35.48 27.3956 35.9631L30.1462 38.7186C30.3802 38.9529 30.6912 39.082 31.0223 39.082C31.3531 39.082 31.6644 38.9529 31.8985 38.7186L39.6384 30.9653C40.1205 30.4822 40.1205 29.6964 39.6384 29.2133ZM34.5929 23.3868L34.5819 23.385L34.4751 23.3633L34.5929 23.3868ZM15.7413 31.351C15.3723 31.7209 14.8822 31.9431 14.3616 31.9769C13.5049 32.0325 12.699 32.3978 12.0923 33.0054L11.7465 33.3517L11.4352 33.0399C11.4313 33.0359 11.4273 33.0316 11.4233 33.028L5.75623 27.3511L5.93811 27.1689C6.60461 26.5012 6.97174 25.6134 6.97174 24.6689V22.9953C6.97174 22.42 7.19513 21.8793 7.60132 21.4725L10.2698 18.7997C10.647 18.4216 11.1487 18.2135 11.6821 18.2135C12.0242 18.2135 12.3532 18.2996 12.645 18.461L11.1398 19.9686C10.9113 20.1974 10.9116 20.5685 11.1404 20.7971C11.2549 20.9113 11.4047 20.9683 11.5546 20.9683C11.7047 20.9683 11.8549 20.9109 11.9693 20.7965L13.7671 18.9954V26.3104C13.7671 27.4139 14.6637 28.3115 15.7657 28.3115C16.0764 28.3115 16.3705 28.2401 16.633 28.1131C16.752 28.6938 17.1231 29.1833 17.626 29.4623L15.7413 31.351ZM25.0562 23.0981C25.0562 23.5553 24.6851 23.9273 24.2294 23.9273C23.7735 23.9273 23.4027 23.5553 23.4027 23.0981V16.5622C23.4027 16.2387 23.1406 15.9763 22.8168 15.9763C22.493 15.9763 22.2308 16.2387 22.2308 16.5622V26.3107C22.2308 26.7679 21.86 27.1396 21.4041 27.1396C20.9949 27.1396 20.6552 26.8399 20.5896 26.4478V16.5555C20.5896 16.2317 20.3275 15.9695 20.0037 15.9695C19.8996 15.9695 19.8016 15.997 19.7168 16.0446C19.5316 16.1432 19.4055 16.3379 19.4055 16.5622V26.3104C19.4055 26.3849 19.4098 26.4578 19.4177 26.5302V27.7109C19.4177 28.168 19.0469 28.54 18.591 28.54C18.1354 28.54 17.7646 28.168 17.7646 27.7109V16.5485C17.7646 16.225 17.5021 15.9625 17.1786 15.9625C16.8549 15.9625 16.5924 16.225 16.5924 16.5485V26.3104C16.5924 26.7676 16.2216 27.1396 15.766 27.1396C15.3101 27.1396 14.9393 26.7676 14.9393 26.3104V15.4111C14.9393 15.0873 14.6768 14.8248 14.3533 14.8248C14.0295 14.8248 13.7674 15.0873 13.7674 15.4111V17.4271C13.7183 17.4429 13.6707 17.4652 13.6264 17.4945C12.8687 17.2098 12.3279 16.4767 12.3279 15.6192V11.839C12.3279 11.2637 12.5516 10.723 12.9575 10.3162L14.1388 9.13269C14.8056 8.46497 15.1727 7.57721 15.1727 6.63269V6.37573H16.3507C16.6745 6.37573 16.9366 6.11328 16.9366 5.78979C16.9366 5.466 16.6745 5.20386 16.3507 5.20386H13.9105C13.8736 5.20386 13.8437 5.17365 13.8437 5.13672V1.23901C13.8437 1.20209 13.8736 1.17188 13.9105 1.17188H24.8553C24.8926 1.17188 24.9225 1.20209 24.9225 1.23901V5.13672C24.9225 5.17395 24.8926 5.20386 24.8553 5.20386H19.1016C18.7781 5.20386 18.5156 5.466 18.5156 5.78979C18.5156 6.11328 18.7781 6.37573 19.1016 6.37573H23.6435V6.86676C23.6435 7.72614 23.9551 8.55469 24.5212 9.20044C24.866 9.59351 25.0562 10.0983 25.0562 10.6216V23.0981ZM38.8089 30.1373L31.069 37.8906C31.0562 37.9037 31.0406 37.9102 31.0223 37.9102C31.0043 37.9102 30.9888 37.9037 30.9756 37.8906L28.2251 35.1352C28.1985 35.1086 28.1985 35.0656 28.2251 35.0391L28.6679 34.5953L28.6682 34.595L33.1613 30.0943L35.965 27.2858C35.9906 27.2598 36.0324 27.2598 36.058 27.2858L38.8089 30.0412C38.8354 30.0677 38.8354 30.1108 38.8089 30.1373Z" fill="#323232"/>
<path d="M15.7644 2.56287C15.4205 2.56287 15.1406 2.84332 15.1406 3.18787C15.1406 3.53271 15.4205 3.81287 15.7644 3.81287C16.1086 3.81287 16.3885 3.53271 16.3885 3.18787C16.3885 2.84332 16.1086 2.56287 15.7644 2.56287Z" fill="#323232"/>
<path d="M36.2022 29.2725C35.858 29.2725 35.5781 29.5529 35.5781 29.8975C35.5781 30.242 35.858 30.5225 36.2022 30.5225C36.5461 30.5225 36.826 30.242 36.826 29.8975C36.826 29.5529 36.5461 29.2725 36.2022 29.2725Z" fill="#323232"/>
<path d="M9.76349 35.2502C9.76349 34.9057 9.48364 34.6252 9.13971 34.6252C8.79547 34.6252 8.51562 34.9057 8.51562 35.2502C8.51562 35.5948 8.79547 35.8752 9.13971 35.8752C9.48364 35.8752 9.76349 35.5948 9.76349 35.2502Z" fill="#323232"/>
</svg>
