<svg width="166" height="38" viewBox="0 0 166 38" fill="none" xmlns="http://www.w3.org/2000/svg">
<path d="M87.132 16.103L81.876 29H80.31L75.054 16.103H76.449C76.605 16.103 76.731 16.142 76.827 16.22C76.923 16.298 76.995 16.397 77.043 16.517L80.679 25.616C80.757 25.82 80.832 26.042 80.904 26.282C80.982 26.522 81.051 26.774 81.111 27.038C81.171 26.774 81.234 26.522 81.3 26.282C81.366 26.042 81.438 25.82 81.516 25.616L85.143 16.517C85.179 16.415 85.248 16.322 85.35 16.238C85.458 16.148 85.587 16.103 85.737 16.103H87.132ZM90.1426 19.883V29H88.5406V19.883H90.1426ZM90.4846 17.021C90.4846 17.177 90.4516 17.324 90.3856 17.462C90.3256 17.594 90.2416 17.714 90.1336 17.822C90.0316 17.924 89.9086 18.005 89.7646 18.065C89.6266 18.125 89.4796 18.155 89.3236 18.155C89.1676 18.155 89.0206 18.125 88.8826 18.065C88.7506 18.005 88.6336 17.924 88.5316 17.822C88.4296 17.714 88.3486 17.594 88.2886 17.462C88.2286 17.324 88.1986 17.177 88.1986 17.021C88.1986 16.865 88.2286 16.718 88.2886 16.58C88.3486 16.436 88.4296 16.313 88.5316 16.211C88.6336 16.103 88.7506 16.019 88.8826 15.959C89.0206 15.899 89.1676 15.869 89.3236 15.869C89.4796 15.869 89.6266 15.899 89.7646 15.959C89.9086 16.019 90.0316 16.103 90.1336 16.211C90.2416 16.313 90.3256 16.436 90.3856 16.58C90.4516 16.718 90.4846 16.865 90.4846 17.021ZM98.0849 21.386C98.0129 21.518 97.9019 21.584 97.7519 21.584C97.6619 21.584 97.5599 21.551 97.4459 21.485C97.3319 21.419 97.1909 21.347 97.0229 21.269C96.8609 21.185 96.6659 21.11 96.4379 21.044C96.2099 20.972 95.9399 20.936 95.6279 20.936C95.3579 20.936 95.1149 20.972 94.8989 21.044C94.6829 21.11 94.4969 21.203 94.3409 21.323C94.1909 21.443 94.0739 21.584 93.9899 21.746C93.9119 21.902 93.8729 22.073 93.8729 22.259C93.8729 22.493 93.9389 22.688 94.0709 22.844C94.2089 23 94.3889 23.135 94.6109 23.249C94.8329 23.363 95.0849 23.465 95.3669 23.555C95.6489 23.639 95.9369 23.732 96.2309 23.834C96.5309 23.93 96.8219 24.038 97.1039 24.158C97.3859 24.278 97.6379 24.428 97.8599 24.608C98.0819 24.788 98.2589 25.01 98.3909 25.274C98.5289 25.532 98.5979 25.844 98.5979 26.21C98.5979 26.63 98.5229 27.02 98.3729 27.38C98.2229 27.734 98.0009 28.043 97.7069 28.307C97.4129 28.565 97.0529 28.769 96.6269 28.919C96.2009 29.069 95.7089 29.144 95.1509 29.144C94.5149 29.144 93.9389 29.042 93.4229 28.838C92.9069 28.628 92.4689 28.361 92.1089 28.037L92.4869 27.425C92.5349 27.347 92.5919 27.287 92.6579 27.245C92.7239 27.203 92.8079 27.182 92.9099 27.182C93.0179 27.182 93.1319 27.224 93.2519 27.308C93.3719 27.392 93.5159 27.485 93.6839 27.587C93.8579 27.689 94.0679 27.782 94.3139 27.866C94.5599 27.95 94.8659 27.992 95.2319 27.992C95.5439 27.992 95.8169 27.953 96.0509 27.875C96.2849 27.791 96.4799 27.68 96.6359 27.542C96.7919 27.404 96.9059 27.245 96.9779 27.065C97.0559 26.885 97.0949 26.693 97.0949 26.489C97.0949 26.237 97.0259 26.03 96.8879 25.868C96.7559 25.7 96.5789 25.559 96.3569 25.445C96.1349 25.325 95.8799 25.223 95.5919 25.139C95.3099 25.049 95.0189 24.956 94.7189 24.86C94.4249 24.764 94.1339 24.656 93.8459 24.536C93.5639 24.41 93.3119 24.254 93.0899 24.068C92.8679 23.882 92.6879 23.654 92.5499 23.384C92.4179 23.108 92.3519 22.775 92.3519 22.385C92.3519 22.037 92.4239 21.704 92.5679 21.386C92.7119 21.062 92.9219 20.78 93.1979 20.54C93.4739 20.294 93.8129 20.099 94.2149 19.955C94.6169 19.811 95.0759 19.739 95.5919 19.739C96.1919 19.739 96.7289 19.835 97.2029 20.027C97.6829 20.213 98.0969 20.471 98.4449 20.801L98.0849 21.386ZM105.503 24.896C104.765 24.92 104.135 24.98 103.613 25.076C103.097 25.166 102.674 25.286 102.344 25.436C102.02 25.586 101.783 25.763 101.633 25.967C101.489 26.171 101.417 26.399 101.417 26.651C101.417 26.891 101.456 27.098 101.534 27.272C101.612 27.446 101.717 27.59 101.849 27.704C101.987 27.812 102.146 27.893 102.326 27.947C102.512 27.995 102.71 28.019 102.92 28.019C103.202 28.019 103.46 27.992 103.694 27.938C103.928 27.878 104.147 27.794 104.351 27.686C104.561 27.578 104.759 27.449 104.945 27.299C105.137 27.149 105.323 26.978 105.503 26.786V24.896ZM100.328 21.17C100.832 20.684 101.375 20.321 101.957 20.081C102.539 19.841 103.184 19.721 103.892 19.721C104.402 19.721 104.855 19.805 105.251 19.973C105.647 20.141 105.98 20.375 106.25 20.675C106.52 20.975 106.724 21.338 106.862 21.764C107 22.19 107.069 22.658 107.069 23.168V29H106.358C106.202 29 106.082 28.976 105.998 28.928C105.914 28.874 105.848 28.772 105.8 28.622L105.62 27.758C105.38 27.98 105.146 28.178 104.918 28.352C104.69 28.52 104.45 28.664 104.198 28.784C103.946 28.898 103.676 28.985 103.388 29.045C103.106 29.111 102.791 29.144 102.443 29.144C102.089 29.144 101.756 29.096 101.444 29C101.132 28.898 100.859 28.748 100.625 28.55C100.397 28.352 100.214 28.103 100.076 27.803C99.944 27.497 99.878 27.137 99.878 26.723C99.878 26.363 99.977 26.018 100.175 25.688C100.373 25.352 100.694 25.055 101.138 24.797C101.582 24.539 102.161 24.329 102.875 24.167C103.589 23.999 104.465 23.903 105.503 23.879V23.168C105.503 22.46 105.35 21.926 105.044 21.566C104.738 21.2 104.291 21.017 103.703 21.017C103.307 21.017 102.974 21.068 102.704 21.17C102.44 21.266 102.209 21.377 102.011 21.503C101.819 21.623 101.651 21.734 101.507 21.836C101.369 21.932 101.231 21.98 101.093 21.98C100.985 21.98 100.892 21.953 100.814 21.899C100.736 21.839 100.67 21.767 100.616 21.683L100.328 21.17ZM104.684 17.075C104.9 17.075 105.065 17.012 105.179 16.886C105.299 16.76 105.362 16.565 105.368 16.301H106.34C106.34 16.583 106.301 16.844 106.223 17.084C106.151 17.318 106.043 17.519 105.899 17.687C105.761 17.855 105.593 17.987 105.395 18.083C105.203 18.173 104.987 18.218 104.747 18.218C104.537 18.218 104.339 18.176 104.153 18.092C103.973 18.002 103.802 17.906 103.64 17.804C103.478 17.702 103.325 17.609 103.181 17.525C103.037 17.435 102.896 17.39 102.758 17.39C102.326 17.39 102.104 17.654 102.092 18.182H101.093C101.093 17.894 101.132 17.633 101.21 17.399C101.288 17.159 101.399 16.955 101.543 16.787C101.687 16.613 101.858 16.481 102.056 16.391C102.254 16.295 102.47 16.247 102.704 16.247C102.914 16.247 103.109 16.292 103.289 16.382C103.475 16.466 103.649 16.559 103.811 16.661C103.973 16.763 104.123 16.859 104.261 16.949C104.405 17.033 104.546 17.075 104.684 17.075ZM113.352 19.739C114.018 19.739 114.618 19.85 115.152 20.072C115.686 20.294 116.142 20.609 116.52 21.017C116.898 21.425 117.186 21.92 117.384 22.502C117.588 23.078 117.69 23.723 117.69 24.437C117.69 25.157 117.588 25.805 117.384 26.381C117.186 26.957 116.898 27.449 116.52 27.857C116.142 28.265 115.686 28.58 115.152 28.802C114.618 29.018 114.018 29.126 113.352 29.126C112.68 29.126 112.074 29.018 111.534 28.802C111 28.58 110.544 28.265 110.166 27.857C109.788 27.449 109.497 26.957 109.293 26.381C109.095 25.805 108.996 25.157 108.996 24.437C108.996 23.723 109.095 23.078 109.293 22.502C109.497 21.92 109.788 21.425 110.166 21.017C110.544 20.609 111 20.294 111.534 20.072C112.074 19.85 112.68 19.739 113.352 19.739ZM113.352 27.875C114.252 27.875 114.924 27.575 115.368 26.975C115.812 26.369 116.034 25.526 116.034 24.446C116.034 23.36 115.812 22.514 115.368 21.908C114.924 21.302 114.252 20.999 113.352 20.999C112.896 20.999 112.497 21.077 112.155 21.233C111.819 21.389 111.537 21.614 111.309 21.908C111.087 22.202 110.919 22.565 110.805 22.997C110.697 23.423 110.643 23.906 110.643 24.446C110.643 25.526 110.865 26.369 111.309 26.975C111.759 27.575 112.44 27.875 113.352 27.875ZM135.182 22.799V27.749C134.534 28.217 133.841 28.568 133.103 28.802C132.371 29.03 131.567 29.144 130.691 29.144C129.653 29.144 128.717 28.985 127.883 28.667C127.049 28.343 126.335 27.893 125.741 27.317C125.153 26.735 124.7 26.039 124.382 25.229C124.064 24.419 123.905 23.528 123.905 22.556C123.905 21.572 124.058 20.675 124.364 19.865C124.676 19.055 125.117 18.362 125.687 17.786C126.257 17.204 126.95 16.754 127.766 16.436C128.582 16.118 129.494 15.959 130.502 15.959C131.012 15.959 131.486 15.998 131.924 16.076C132.362 16.148 132.767 16.256 133.139 16.4C133.511 16.538 133.856 16.709 134.174 16.913C134.492 17.111 134.789 17.336 135.065 17.588L134.57 18.38C134.492 18.5 134.39 18.578 134.264 18.614C134.144 18.644 134.009 18.614 133.859 18.524C133.715 18.44 133.55 18.338 133.364 18.218C133.178 18.098 132.95 17.984 132.68 17.876C132.416 17.762 132.101 17.666 131.735 17.588C131.375 17.51 130.946 17.471 130.448 17.471C129.722 17.471 129.065 17.591 128.477 17.831C127.889 18.065 127.388 18.404 126.974 18.848C126.56 19.286 126.242 19.82 126.02 20.45C125.798 21.074 125.687 21.776 125.687 22.556C125.687 23.366 125.801 24.092 126.029 24.734C126.263 25.37 126.593 25.913 127.019 26.363C127.451 26.807 127.973 27.146 128.585 27.38C129.197 27.614 129.884 27.731 130.646 27.731C131.246 27.731 131.777 27.665 132.239 27.533C132.707 27.395 133.163 27.206 133.607 26.966V24.131H131.6C131.486 24.131 131.393 24.098 131.321 24.032C131.255 23.966 131.222 23.885 131.222 23.789V22.799H135.182ZM143.473 23.447C143.473 23.075 143.419 22.736 143.311 22.43C143.209 22.118 143.056 21.851 142.852 21.629C142.654 21.401 142.411 21.227 142.123 21.107C141.835 20.981 141.508 20.918 141.142 20.918C140.374 20.918 139.765 21.143 139.315 21.593C138.871 22.037 138.595 22.655 138.487 23.447H143.473ZM144.769 27.722C144.571 27.962 144.334 28.172 144.058 28.352C143.782 28.526 143.485 28.67 143.167 28.784C142.855 28.898 142.531 28.982 142.195 29.036C141.859 29.096 141.526 29.126 141.196 29.126C140.566 29.126 139.984 29.021 139.45 28.811C138.922 28.595 138.463 28.283 138.073 27.875C137.689 27.461 137.389 26.951 137.173 26.345C136.957 25.739 136.849 25.043 136.849 24.257C136.849 23.621 136.945 23.027 137.137 22.475C137.335 21.923 137.617 21.446 137.983 21.044C138.349 20.636 138.796 20.318 139.324 20.09C139.852 19.856 140.446 19.739 141.106 19.739C141.652 19.739 142.156 19.832 142.618 20.018C143.086 20.198 143.488 20.462 143.824 20.81C144.166 21.152 144.433 21.578 144.625 22.088C144.817 22.592 144.913 23.168 144.913 23.816C144.913 24.068 144.886 24.236 144.832 24.32C144.778 24.404 144.676 24.446 144.526 24.446H138.433C138.451 25.022 138.529 25.523 138.667 25.949C138.811 26.375 139.009 26.732 139.261 27.02C139.513 27.302 139.813 27.515 140.161 27.659C140.509 27.797 140.899 27.866 141.331 27.866C141.733 27.866 142.078 27.821 142.366 27.731C142.66 27.635 142.912 27.533 143.122 27.425C143.332 27.317 143.506 27.218 143.644 27.128C143.788 27.032 143.911 26.984 144.013 26.984C144.145 26.984 144.247 27.035 144.319 27.137L144.769 27.722ZM148.401 21.71C148.689 21.086 149.043 20.6 149.463 20.252C149.883 19.898 150.396 19.721 151.002 19.721C151.194 19.721 151.377 19.742 151.551 19.784C151.731 19.826 151.89 19.892 152.028 19.982L151.911 21.179C151.875 21.329 151.785 21.404 151.641 21.404C151.557 21.404 151.434 21.386 151.272 21.35C151.11 21.314 150.927 21.296 150.723 21.296C150.435 21.296 150.177 21.338 149.949 21.422C149.727 21.506 149.526 21.632 149.346 21.8C149.172 21.962 149.013 22.166 148.869 22.412C148.731 22.652 148.605 22.928 148.491 23.24V29H146.88V19.883H147.798C147.972 19.883 148.092 19.916 148.158 19.982C148.224 20.048 148.269 20.162 148.293 20.324L148.401 21.71ZM158.237 24.896C157.499 24.92 156.869 24.98 156.347 25.076C155.831 25.166 155.408 25.286 155.078 25.436C154.754 25.586 154.517 25.763 154.367 25.967C154.223 26.171 154.151 26.399 154.151 26.651C154.151 26.891 154.19 27.098 154.268 27.272C154.346 27.446 154.451 27.59 154.583 27.704C154.721 27.812 154.88 27.893 155.06 27.947C155.246 27.995 155.444 28.019 155.654 28.019C155.936 28.019 156.194 27.992 156.428 27.938C156.662 27.878 156.881 27.794 157.085 27.686C157.295 27.578 157.493 27.449 157.679 27.299C157.871 27.149 158.057 26.978 158.237 26.786V24.896ZM153.062 21.17C153.566 20.684 154.109 20.321 154.691 20.081C155.273 19.841 155.918 19.721 156.626 19.721C157.136 19.721 157.589 19.805 157.985 19.973C158.381 20.141 158.714 20.375 158.984 20.675C159.254 20.975 159.458 21.338 159.596 21.764C159.734 22.19 159.803 22.658 159.803 23.168V29H159.092C158.936 29 158.816 28.976 158.732 28.928C158.648 28.874 158.582 28.772 158.534 28.622L158.354 27.758C158.114 27.98 157.88 28.178 157.652 28.352C157.424 28.52 157.184 28.664 156.932 28.784C156.68 28.898 156.41 28.985 156.122 29.045C155.84 29.111 155.525 29.144 155.177 29.144C154.823 29.144 154.49 29.096 154.178 29C153.866 28.898 153.593 28.748 153.359 28.55C153.131 28.352 152.948 28.103 152.81 27.803C152.678 27.497 152.612 27.137 152.612 26.723C152.612 26.363 152.711 26.018 152.909 25.688C153.107 25.352 153.428 25.055 153.872 24.797C154.316 24.539 154.895 24.329 155.609 24.167C156.323 23.999 157.199 23.903 158.237 23.879V23.168C158.237 22.46 158.084 21.926 157.778 21.566C157.472 21.2 157.025 21.017 156.437 21.017C156.041 21.017 155.708 21.068 155.438 21.17C155.174 21.266 154.943 21.377 154.745 21.503C154.553 21.623 154.385 21.734 154.241 21.836C154.103 21.932 153.965 21.98 153.827 21.98C153.719 21.98 153.626 21.953 153.548 21.899C153.47 21.839 153.404 21.767 153.35 21.683L153.062 21.17ZM163.9 15.743V29H162.298V15.743H163.9Z" fill="#323232"/>
<path d="M18.75 23.375H12.5C12.1548 23.375 11.875 23.6548 11.875 24V36.5C11.875 36.8452 12.1548 37.125 12.5 37.125H18.75C19.0952 37.125 19.375 36.8452 19.375 36.5V24C19.375 23.6548 19.0952 23.375 18.75 23.375Z" fill="#999898"/>
<path d="M28.75 17.125H22.5C22.1548 17.125 21.875 17.4048 21.875 17.75V36.5C21.875 36.8452 22.1548 37.125 22.5 37.125H28.75C29.0952 37.125 29.375 36.8452 29.375 36.5V17.75C29.375 17.4048 29.0952 17.125 28.75 17.125Z" fill="#999898"/>
<path d="M38.75 10.875H32.5C32.1548 10.875 31.875 11.1548 31.875 11.5V36.5C31.875 36.8452 32.1548 37.125 32.5 37.125H38.75C39.0952 37.125 39.375 36.8452 39.375 36.5V11.5C39.375 11.1548 39.0952 10.875 38.75 10.875Z" fill="#999898"/>
<path d="M21.2445 0.875018C19.1959 0.871226 17.1901 1.46069 15.4693 2.5722C13.7486 3.68371 12.3865 5.26971 11.5476 7.1386C10.7087 9.00749 10.4289 11.0793 10.742 13.1038C11.0551 15.1283 11.9477 17.0188 13.312 18.5469L11.9613 19.8969L11.5188 19.455C11.1672 19.1035 10.6904 18.906 10.1932 18.906C9.69603 18.906 9.21921 19.1035 8.86759 19.455L1.35697 26.9682C0.888288 27.437 0.625 28.0727 0.625 28.7357C0.625 29.3986 0.888288 30.0343 1.35697 30.5032L2.24134 31.3869C2.71016 31.8556 3.34593 32.1189 4.00884 32.1189C4.67175 32.1189 5.30752 31.8556 5.77634 31.3869L13.2895 23.875C13.641 23.5234 13.8384 23.0466 13.8384 22.5494C13.8384 22.0522 13.641 21.5754 13.2895 21.2238L12.8476 20.7813L14.1982 19.4313C15.484 20.5735 17.028 21.3864 18.6975 21.7999C20.3669 22.2133 22.1118 22.2151 23.7821 21.805C25.4524 21.3949 26.998 20.5852 28.2861 19.4455C29.5742 18.3059 30.5662 16.8704 31.1768 15.2625C31.7873 13.6546 31.9982 11.9225 31.7911 10.2151C31.5841 8.50773 30.9655 6.87618 29.9884 5.4608C29.0113 4.04542 27.705 2.88858 26.1819 2.08977C24.6587 1.29095 22.9644 0.874087 21.2445 0.875018ZM4.89259 30.5032C4.65456 30.7306 4.33803 30.8574 4.00884 30.8574C3.67965 30.8574 3.36312 30.7306 3.12509 30.5032L2.24072 29.6194C2.00638 29.385 1.87473 29.0671 1.87473 28.7357C1.87473 28.4042 2.00638 28.0863 2.24072 27.8519L7.98634 22.1063L10.6382 24.7582L4.89259 30.5032ZM12.4057 22.9907L11.522 23.875L8.87009 21.2232L9.75384 20.3394C9.87105 20.2222 10.03 20.1564 10.1957 20.1564C10.3614 20.1564 10.5204 20.2222 10.6376 20.3394L12.4057 22.1075C12.5227 22.2247 12.5884 22.3835 12.5884 22.5491C12.5884 22.7147 12.5227 22.8735 12.4057 22.9907ZM21.2445 20.875C19.3903 20.875 17.5777 20.3252 16.036 19.2951C14.4943 18.2649 13.2927 16.8007 12.5831 15.0877C11.8735 13.3746 11.6879 11.4896 12.0496 9.67105C12.4113 7.85248 13.3042 6.18201 14.6153 4.87089C15.9265 3.55978 17.5969 2.66689 19.4155 2.30516C21.2341 1.94342 23.1191 2.12908 24.8321 2.83865C26.5452 3.54822 28.0094 4.74984 29.0395 6.29155C30.0696 7.83326 30.6195 9.64582 30.6195 11.5C30.6167 13.9856 29.628 16.3685 27.8705 18.126C26.1129 19.8836 23.73 20.8722 21.2445 20.875Z" fill="#323232"/>
<path d="M27.0207 9.64378L24.5207 9.01878C24.3604 8.97983 24.1912 9.00586 24.0499 9.09118C23.9087 9.1765 23.807 9.3142 23.7669 9.47424C23.7268 9.63428 23.7516 9.80368 23.8359 9.9455C23.9202 10.0873 24.0572 10.19 24.217 10.2313L25.5232 10.5582L23.1576 12.5294L19.8113 9.18316C19.7011 9.07284 19.5537 9.00771 19.3979 9.00054C19.2421 8.99337 19.0893 9.04468 18.9694 9.14441L15.2194 12.2694C15.092 12.3755 15.0119 12.5279 14.9967 12.693C14.9816 12.8582 15.0327 13.0226 15.1388 13.15C15.2449 13.2775 15.3973 13.3576 15.5624 13.3727C15.7276 13.3878 15.892 13.3367 16.0194 13.2307L19.3319 10.4707L22.6782 13.8169C22.7884 13.9272 22.9359 13.9924 23.0916 13.9995C23.2474 14.0067 23.4002 13.9554 23.5201 13.8557L26.2451 11.5844V12.75C26.2451 12.9158 26.3109 13.0748 26.4281 13.192C26.5453 13.3092 26.7043 13.375 26.8701 13.375C27.0358 13.375 27.1948 13.3092 27.312 13.192C27.4292 13.0748 27.4951 12.9158 27.4951 12.75V10.25C27.495 10.1105 27.4483 9.97507 27.3623 9.86521C27.2763 9.75535 27.1561 9.6774 27.0207 9.64378Z" fill="#323232"/>
</svg>
