<svg width="145" height="44" viewBox="0 0 145 44" fill="none" xmlns="http://www.w3.org/2000/svg">
<path d="M87.096 5.103V18H86.223C86.085 18 85.968 17.976 85.872 17.928C85.782 17.88 85.692 17.799 85.602 17.685L78.141 7.965C78.153 8.115 78.162 8.262 78.168 8.406C78.174 8.55 78.177 8.685 78.177 8.811V18H76.647V5.103H77.547C77.625 5.103 77.691 5.109 77.745 5.121C77.799 5.127 77.847 5.142 77.889 5.166C77.931 5.184 77.973 5.214 78.015 5.256C78.057 5.292 78.102 5.34 78.15 5.4L85.611 15.111C85.599 14.955 85.587 14.805 85.575 14.661C85.569 14.511 85.566 14.37 85.566 14.238V5.103H87.096ZM93.5768 8.739C94.2428 8.739 94.8428 8.85 95.3768 9.072C95.9108 9.294 96.3668 9.609 96.7448 10.017C97.1228 10.425 97.4108 10.92 97.6088 11.502C97.8128 12.078 97.9148 12.723 97.9148 13.437C97.9148 14.157 97.8128 14.805 97.6088 15.381C97.4108 15.957 97.1228 16.449 96.7448 16.857C96.3668 17.265 95.9108 17.58 95.3768 17.802C94.8428 18.018 94.2428 18.126 93.5768 18.126C92.9048 18.126 92.2988 18.018 91.7588 17.802C91.2248 17.58 90.7688 17.265 90.3908 16.857C90.0128 16.449 89.7218 15.957 89.5178 15.381C89.3198 14.805 89.2208 14.157 89.2208 13.437C89.2208 12.723 89.3198 12.078 89.5178 11.502C89.7218 10.92 90.0128 10.425 90.3908 10.017C90.7688 9.609 91.2248 9.294 91.7588 9.072C92.2988 8.85 92.9048 8.739 93.5768 8.739ZM93.5768 16.875C94.4768 16.875 95.1488 16.575 95.5928 15.975C96.0368 15.369 96.2588 14.526 96.2588 13.446C96.2588 12.36 96.0368 11.514 95.5928 10.908C95.1488 10.302 94.4768 9.999 93.5768 9.999C93.1208 9.999 92.7218 10.077 92.3798 10.233C92.0438 10.389 91.7618 10.614 91.5338 10.908C91.3118 11.202 91.1438 11.565 91.0298 11.997C90.9218 12.423 90.8678 12.906 90.8678 13.446C90.8678 14.526 91.0898 15.369 91.5338 15.975C91.9838 16.575 92.6648 16.875 93.5768 16.875ZM105.257 10.386C105.185 10.518 105.074 10.584 104.924 10.584C104.834 10.584 104.732 10.551 104.618 10.485C104.504 10.419 104.363 10.347 104.195 10.269C104.033 10.185 103.838 10.11 103.61 10.044C103.382 9.972 103.112 9.936 102.8 9.936C102.53 9.936 102.287 9.972 102.071 10.044C101.855 10.11 101.669 10.203 101.513 10.323C101.363 10.443 101.246 10.584 101.162 10.746C101.084 10.902 101.045 11.073 101.045 11.259C101.045 11.493 101.111 11.688 101.243 11.844C101.381 12 101.561 12.135 101.783 12.249C102.005 12.363 102.257 12.465 102.539 12.555C102.821 12.639 103.109 12.732 103.403 12.834C103.703 12.93 103.994 13.038 104.276 13.158C104.558 13.278 104.81 13.428 105.032 13.608C105.254 13.788 105.431 14.01 105.563 14.274C105.701 14.532 105.77 14.844 105.77 15.21C105.77 15.63 105.695 16.02 105.545 16.38C105.395 16.734 105.173 17.043 104.879 17.307C104.585 17.565 104.225 17.769 103.799 17.919C103.373 18.069 102.881 18.144 102.323 18.144C101.687 18.144 101.111 18.042 100.595 17.838C100.079 17.628 99.6407 17.361 99.2807 17.037L99.6587 16.425C99.7067 16.347 99.7637 16.287 99.8297 16.245C99.8957 16.203 99.9797 16.182 100.082 16.182C100.19 16.182 100.304 16.224 100.424 16.308C100.544 16.392 100.688 16.485 100.856 16.587C101.03 16.689 101.24 16.782 101.486 16.866C101.732 16.95 102.038 16.992 102.404 16.992C102.716 16.992 102.989 16.953 103.223 16.875C103.457 16.791 103.652 16.68 103.808 16.542C103.964 16.404 104.078 16.245 104.15 16.065C104.228 15.885 104.267 15.693 104.267 15.489C104.267 15.237 104.198 15.03 104.06 14.868C103.928 14.7 103.751 14.559 103.529 14.445C103.307 14.325 103.052 14.223 102.764 14.139C102.482 14.049 102.191 13.956 101.891 13.86C101.597 13.764 101.306 13.656 101.018 13.536C100.736 13.41 100.484 13.254 100.262 13.068C100.04 12.882 99.8597 12.654 99.7217 12.384C99.5897 12.108 99.5237 11.775 99.5237 11.385C99.5237 11.037 99.5957 10.704 99.7397 10.386C99.8837 10.062 100.094 9.78 100.37 9.54C100.646 9.294 100.985 9.099 101.387 8.955C101.789 8.811 102.248 8.739 102.764 8.739C103.364 8.739 103.901 8.835 104.375 9.027C104.855 9.213 105.269 9.471 105.617 9.801L105.257 10.386ZM113.044 10.386C112.972 10.518 112.861 10.584 112.711 10.584C112.621 10.584 112.519 10.551 112.405 10.485C112.291 10.419 112.15 10.347 111.982 10.269C111.82 10.185 111.625 10.11 111.397 10.044C111.169 9.972 110.899 9.936 110.587 9.936C110.317 9.936 110.074 9.972 109.858 10.044C109.642 10.11 109.456 10.203 109.3 10.323C109.15 10.443 109.033 10.584 108.949 10.746C108.871 10.902 108.832 11.073 108.832 11.259C108.832 11.493 108.898 11.688 109.03 11.844C109.168 12 109.348 12.135 109.57 12.249C109.792 12.363 110.044 12.465 110.326 12.555C110.608 12.639 110.896 12.732 111.19 12.834C111.49 12.93 111.781 13.038 112.063 13.158C112.345 13.278 112.597 13.428 112.819 13.608C113.041 13.788 113.218 14.01 113.35 14.274C113.488 14.532 113.557 14.844 113.557 15.21C113.557 15.63 113.482 16.02 113.332 16.38C113.182 16.734 112.96 17.043 112.666 17.307C112.372 17.565 112.012 17.769 111.586 17.919C111.16 18.069 110.668 18.144 110.11 18.144C109.474 18.144 108.898 18.042 108.382 17.838C107.866 17.628 107.428 17.361 107.068 17.037L107.446 16.425C107.494 16.347 107.551 16.287 107.617 16.245C107.683 16.203 107.767 16.182 107.869 16.182C107.977 16.182 108.091 16.224 108.211 16.308C108.331 16.392 108.475 16.485 108.643 16.587C108.817 16.689 109.027 16.782 109.273 16.866C109.519 16.95 109.825 16.992 110.191 16.992C110.503 16.992 110.776 16.953 111.01 16.875C111.244 16.791 111.439 16.68 111.595 16.542C111.751 16.404 111.865 16.245 111.937 16.065C112.015 15.885 112.054 15.693 112.054 15.489C112.054 15.237 111.985 15.03 111.847 14.868C111.715 14.7 111.538 14.559 111.316 14.445C111.094 14.325 110.839 14.223 110.551 14.139C110.269 14.049 109.978 13.956 109.678 13.86C109.384 13.764 109.093 13.656 108.805 13.536C108.523 13.41 108.271 13.254 108.049 13.068C107.827 12.882 107.647 12.654 107.509 12.384C107.377 12.108 107.311 11.775 107.311 11.385C107.311 11.037 107.383 10.704 107.527 10.386C107.671 10.062 107.881 9.78 108.157 9.54C108.433 9.294 108.772 9.099 109.174 8.955C109.576 8.811 110.035 8.739 110.551 8.739C111.151 8.739 111.688 8.835 112.162 9.027C112.642 9.213 113.056 9.471 113.404 9.801L113.044 10.386ZM119.364 8.739C120.03 8.739 120.63 8.85 121.164 9.072C121.698 9.294 122.154 9.609 122.532 10.017C122.91 10.425 123.198 10.92 123.396 11.502C123.6 12.078 123.702 12.723 123.702 13.437C123.702 14.157 123.6 14.805 123.396 15.381C123.198 15.957 122.91 16.449 122.532 16.857C122.154 17.265 121.698 17.58 121.164 17.802C120.63 18.018 120.03 18.126 119.364 18.126C118.692 18.126 118.086 18.018 117.546 17.802C117.012 17.58 116.556 17.265 116.178 16.857C115.8 16.449 115.509 15.957 115.305 15.381C115.107 14.805 115.008 14.157 115.008 13.437C115.008 12.723 115.107 12.078 115.305 11.502C115.509 10.92 115.8 10.425 116.178 10.017C116.556 9.609 117.012 9.294 117.546 9.072C118.086 8.85 118.692 8.739 119.364 8.739ZM119.364 16.875C120.264 16.875 120.936 16.575 121.38 15.975C121.824 15.369 122.046 14.526 122.046 13.446C122.046 12.36 121.824 11.514 121.38 10.908C120.936 10.302 120.264 9.999 119.364 9.999C118.908 9.999 118.509 10.077 118.167 10.233C117.831 10.389 117.549 10.614 117.321 10.908C117.099 11.202 116.931 11.565 116.817 11.997C116.709 12.423 116.655 12.906 116.655 13.446C116.655 14.526 116.877 15.369 117.321 15.975C117.771 16.575 118.452 16.875 119.364 16.875ZM76.269 40V30.883H77.232C77.46 30.883 77.601 30.994 77.655 31.216L77.772 32.152C78.108 31.738 78.486 31.399 78.906 31.135C79.326 30.871 79.812 30.739 80.364 30.739C80.976 30.739 81.471 30.91 81.849 31.252C82.233 31.594 82.509 32.056 82.677 32.638C82.809 32.308 82.977 32.023 83.181 31.783C83.391 31.543 83.625 31.345 83.883 31.189C84.141 31.033 84.414 30.919 84.702 30.847C84.996 30.775 85.293 30.739 85.593 30.739C86.073 30.739 86.499 30.817 86.871 30.973C87.249 31.123 87.567 31.345 87.825 31.639C88.089 31.933 88.29 32.296 88.428 32.728C88.566 33.154 88.635 33.643 88.635 34.195V40H87.024V34.195C87.024 33.481 86.868 32.941 86.556 32.575C86.244 32.203 85.794 32.017 85.206 32.017C84.942 32.017 84.69 32.065 84.45 32.161C84.216 32.251 84.009 32.386 83.829 32.566C83.649 32.746 83.505 32.974 83.397 33.25C83.295 33.52 83.244 33.835 83.244 34.195V40H81.633V34.195C81.633 33.463 81.486 32.917 81.192 32.557C80.898 32.197 80.469 32.017 79.905 32.017C79.509 32.017 79.143 32.125 78.807 32.341C78.471 32.551 78.162 32.839 77.88 33.205V40H76.269ZM96.0108 35.896C95.2728 35.92 94.6428 35.98 94.1208 36.076C93.6048 36.166 93.1818 36.286 92.8518 36.436C92.5278 36.586 92.2908 36.763 92.1408 36.967C91.9968 37.171 91.9248 37.399 91.9248 37.651C91.9248 37.891 91.9638 38.098 92.0418 38.272C92.1198 38.446 92.2248 38.59 92.3568 38.704C92.4948 38.812 92.6538 38.893 92.8338 38.947C93.0198 38.995 93.2178 39.019 93.4278 39.019C93.7098 39.019 93.9678 38.992 94.2018 38.938C94.4358 38.878 94.6548 38.794 94.8588 38.686C95.0688 38.578 95.2668 38.449 95.4528 38.299C95.6448 38.149 95.8308 37.978 96.0108 37.786V35.896ZM90.8358 32.17C91.3398 31.684 91.8828 31.321 92.4648 31.081C93.0468 30.841 93.6918 30.721 94.3998 30.721C94.9098 30.721 95.3628 30.805 95.7588 30.973C96.1548 31.141 96.4878 31.375 96.7578 31.675C97.0278 31.975 97.2318 32.338 97.3698 32.764C97.5078 33.19 97.5768 33.658 97.5768 34.168V40H96.8658C96.7098 40 96.5898 39.976 96.5058 39.928C96.4218 39.874 96.3558 39.772 96.3078 39.622L96.1278 38.758C95.8878 38.98 95.6538 39.178 95.4258 39.352C95.1978 39.52 94.9578 39.664 94.7058 39.784C94.4538 39.898 94.1838 39.985 93.8958 40.045C93.6138 40.111 93.2988 40.144 92.9508 40.144C92.5968 40.144 92.2638 40.096 91.9518 40C91.6398 39.898 91.3668 39.748 91.1328 39.55C90.9048 39.352 90.7218 39.103 90.5838 38.803C90.4518 38.497 90.3858 38.137 90.3858 37.723C90.3858 37.363 90.4848 37.018 90.6828 36.688C90.8808 36.352 91.2018 36.055 91.6458 35.797C92.0898 35.539 92.6688 35.329 93.3828 35.167C94.0968 34.999 94.9728 34.903 96.0108 34.879V34.168C96.0108 33.46 95.8578 32.926 95.5518 32.566C95.2458 32.2 94.7988 32.017 94.2108 32.017C93.8148 32.017 93.4818 32.068 93.2118 32.17C92.9478 32.266 92.7168 32.377 92.5188 32.503C92.3268 32.623 92.1588 32.734 92.0148 32.836C91.8768 32.932 91.7388 32.98 91.6008 32.98C91.4928 32.98 91.3998 32.953 91.3218 32.899C91.2438 32.839 91.1778 32.767 91.1238 32.683L90.8358 32.17ZM101.529 32.206C101.727 31.984 101.937 31.783 102.159 31.603C102.381 31.423 102.615 31.27 102.861 31.144C103.113 31.012 103.377 30.913 103.653 30.847C103.935 30.775 104.238 30.739 104.562 30.739C105.06 30.739 105.498 30.823 105.876 30.991C106.26 31.153 106.578 31.387 106.83 31.693C107.088 31.993 107.283 32.356 107.415 32.782C107.547 33.208 107.613 33.679 107.613 34.195V40H106.002V34.195C106.002 33.505 105.843 32.971 105.525 32.593C105.213 32.209 104.736 32.017 104.094 32.017C103.62 32.017 103.176 32.131 102.762 32.359C102.354 32.587 101.976 32.896 101.628 33.286V40H100.017V30.883H100.98C101.208 30.883 101.349 30.994 101.403 31.216L101.529 32.206ZM115.994 33.052C115.694 32.65 115.37 32.371 115.022 32.215C114.674 32.053 114.284 31.972 113.852 31.972C113.006 31.972 112.355 32.275 111.899 32.881C111.443 33.487 111.215 34.351 111.215 35.473C111.215 36.067 111.266 36.577 111.368 37.003C111.47 37.423 111.62 37.771 111.818 38.047C112.016 38.317 112.259 38.515 112.547 38.641C112.835 38.767 113.162 38.83 113.528 38.83C114.056 38.83 114.515 38.71 114.905 38.47C115.301 38.23 115.664 37.891 115.994 37.453V33.052ZM117.596 26.743V40H116.642C116.414 40 116.27 39.889 116.21 39.667L116.066 38.56C115.676 39.028 115.232 39.406 114.734 39.694C114.236 39.982 113.66 40.126 113.006 40.126C112.484 40.126 112.01 40.027 111.584 39.829C111.158 39.625 110.795 39.328 110.495 38.938C110.195 38.548 109.964 38.062 109.802 37.48C109.64 36.898 109.559 36.229 109.559 35.473C109.559 34.801 109.649 34.177 109.829 33.601C110.009 33.019 110.267 32.515 110.603 32.089C110.939 31.663 111.35 31.33 111.836 31.09C112.328 30.844 112.88 30.721 113.492 30.721C114.05 30.721 114.527 30.817 114.923 31.009C115.325 31.195 115.682 31.456 115.994 31.792V26.743H117.596ZM125.067 35.896C124.329 35.92 123.699 35.98 123.177 36.076C122.661 36.166 122.238 36.286 121.908 36.436C121.584 36.586 121.347 36.763 121.197 36.967C121.053 37.171 120.981 37.399 120.981 37.651C120.981 37.891 121.02 38.098 121.098 38.272C121.176 38.446 121.281 38.59 121.413 38.704C121.551 38.812 121.71 38.893 121.89 38.947C122.076 38.995 122.274 39.019 122.484 39.019C122.766 39.019 123.024 38.992 123.258 38.938C123.492 38.878 123.711 38.794 123.915 38.686C124.125 38.578 124.323 38.449 124.509 38.299C124.701 38.149 124.887 37.978 125.067 37.786V35.896ZM119.892 32.17C120.396 31.684 120.939 31.321 121.521 31.081C122.103 30.841 122.748 30.721 123.456 30.721C123.966 30.721 124.419 30.805 124.815 30.973C125.211 31.141 125.544 31.375 125.814 31.675C126.084 31.975 126.288 32.338 126.426 32.764C126.564 33.19 126.633 33.658 126.633 34.168V40H125.922C125.766 40 125.646 39.976 125.562 39.928C125.478 39.874 125.412 39.772 125.364 39.622L125.184 38.758C124.944 38.98 124.71 39.178 124.482 39.352C124.254 39.52 124.014 39.664 123.762 39.784C123.51 39.898 123.24 39.985 122.952 40.045C122.67 40.111 122.355 40.144 122.007 40.144C121.653 40.144 121.32 40.096 121.008 40C120.696 39.898 120.423 39.748 120.189 39.55C119.961 39.352 119.778 39.103 119.64 38.803C119.508 38.497 119.442 38.137 119.442 37.723C119.442 37.363 119.541 37.018 119.739 36.688C119.937 36.352 120.258 36.055 120.702 35.797C121.146 35.539 121.725 35.329 122.439 35.167C123.153 34.999 124.029 34.903 125.067 34.879V34.168C125.067 33.46 124.914 32.926 124.608 32.566C124.302 32.2 123.855 32.017 123.267 32.017C122.871 32.017 122.538 32.068 122.268 32.17C122.004 32.266 121.773 32.377 121.575 32.503C121.383 32.623 121.215 32.734 121.071 32.836C120.933 32.932 120.795 32.98 120.657 32.98C120.549 32.98 120.456 32.953 120.378 32.899C120.3 32.839 120.234 32.767 120.18 32.683L119.892 32.17ZM131.75 40.144C131.03 40.144 130.475 39.943 130.085 39.541C129.701 39.139 129.509 38.56 129.509 37.804V32.224H128.411C128.315 32.224 128.234 32.197 128.168 32.143C128.102 32.083 128.069 31.993 128.069 31.873V31.234L129.563 31.045L129.932 28.228C129.95 28.138 129.989 28.066 130.049 28.012C130.115 27.952 130.199 27.922 130.301 27.922H131.111V31.063H133.748V32.224H131.111V37.696C131.111 38.08 131.204 38.365 131.39 38.551C131.576 38.737 131.816 38.83 132.11 38.83C132.278 38.83 132.422 38.809 132.542 38.767C132.668 38.719 132.776 38.668 132.866 38.614C132.956 38.56 133.031 38.512 133.091 38.47C133.157 38.422 133.214 38.398 133.262 38.398C133.346 38.398 133.421 38.449 133.487 38.551L133.955 39.316C133.679 39.574 133.346 39.778 132.956 39.928C132.566 40.072 132.164 40.144 131.75 40.144ZM139.192 30.739C139.858 30.739 140.458 30.85 140.992 31.072C141.526 31.294 141.982 31.609 142.36 32.017C142.738 32.425 143.026 32.92 143.224 33.502C143.428 34.078 143.53 34.723 143.53 35.437C143.53 36.157 143.428 36.805 143.224 37.381C143.026 37.957 142.738 38.449 142.36 38.857C141.982 39.265 141.526 39.58 140.992 39.802C140.458 40.018 139.858 40.126 139.192 40.126C138.52 40.126 137.914 40.018 137.374 39.802C136.84 39.58 136.384 39.265 136.006 38.857C135.628 38.449 135.337 37.957 135.133 37.381C134.935 36.805 134.836 36.157 134.836 35.437C134.836 34.723 134.935 34.078 135.133 33.502C135.337 32.92 135.628 32.425 136.006 32.017C136.384 31.609 136.84 31.294 137.374 31.072C137.914 30.85 138.52 30.739 139.192 30.739ZM139.192 38.875C140.092 38.875 140.764 38.575 141.208 37.975C141.652 37.369 141.874 36.526 141.874 35.446C141.874 34.36 141.652 33.514 141.208 32.908C140.764 32.302 140.092 31.999 139.192 31.999C138.736 31.999 138.337 32.077 137.995 32.233C137.659 32.389 137.377 32.614 137.149 32.908C136.927 33.202 136.759 33.565 136.645 33.997C136.537 34.423 136.483 34.906 136.483 35.446C136.483 36.526 136.705 37.369 137.149 37.975C137.599 38.575 138.28 38.875 139.192 38.875Z" fill="#323232"/>
<path d="M9.2168 24.1437H17.9333V28.2293H9.2168V24.1437Z" fill="#999898"/>
<path d="M0.609375 37.1925H26.3916V40.0798H0.609375V37.1925Z" fill="#999898"/>
<path d="M17.1624 13.5642C17.1624 12.9035 16.6689 12.368 16.0601 12.368H11.7793V13.5946H14.4893C14.5013 13.5845 17.15 13.5743 17.1624 13.5642Z" fill="#999898"/>
<path d="M28.1369 7.45432L24.9598 4.00684L27.0065 6.22773C27.1256 6.35702 27.1265 6.56719 27.0065 6.69748L24.4431 9.47897C24.3242 9.60807 24.1292 9.60827 24.0102 9.47897L23.0003 8.38307L21.3929 12.5047C21.2662 12.83 21.0509 13.099 20.7716 13.2823L16.2837 16.2046C15.9136 16.4465 15.4674 16.5335 15.0518 16.409C15.0488 16.4082 15.0459 16.4072 15.043 16.4062C15.0982 16.5991 15.1838 16.7612 15.2569 16.8772L15.3586 17.0236C15.363 17.0306 15.3683 17.0365 15.3738 17.0447C15.5763 17.3348 15.8533 17.5392 16.1823 17.6356C16.598 17.7601 17.044 17.6732 17.4143 17.4312L21.902 14.5088C22.1813 14.3256 22.3966 14.0566 22.5233 13.7313L24.1307 9.60966L25.1406 10.7056C25.2598 10.8347 25.4546 10.8347 25.5735 10.7056L28.1369 7.92407C28.2569 7.79378 28.256 7.58361 28.1369 7.45432Z" fill="#999898"/>
<path d="M24.9062 7.19816C24.6484 7.47786 24.6484 7.93148 24.9062 8.21138C25.164 8.49109 25.582 8.49109 25.8398 8.21138C26.0976 7.93168 26.0976 7.47806 25.8398 7.19836C25.582 6.91845 25.164 6.91845 24.9062 7.19816Z" fill="#999898"/>
<path d="M28.4624 7.10225L23.2386 1.43368C23.0941 1.27689 22.9019 1.19043 22.6978 1.19043C22.4934 1.19043 22.3012 1.27689 22.1567 1.43368L19.5934 4.21517C19.295 4.5389 19.295 5.06563 19.5934 5.38936L19.615 5.41307L12.217 10.2619C12.1222 10.3242 12.0319 10.3959 11.9484 10.4754C11.5496 10.8549 11.3208 11.4285 11.3208 12.0486V13.0965H9.21777C8.96422 13.0965 8.75878 13.3195 8.75878 13.5946V27.7313H7.66016C7.40661 27.7313 7.20117 27.9543 7.20117 28.2294C7.20117 28.5045 7.40661 28.7274 7.66016 28.7274H19.3424C19.596 28.7274 19.8014 28.5045 19.8014 28.2294C19.8014 27.9543 19.596 27.7313 19.3424 27.7313H18.3932V21.5827C18.5427 21.6267 18.6978 21.6512 18.8568 21.6512C19.3277 21.6512 19.7707 21.452 20.1038 21.0906C20.3496 20.8238 20.506 20.4969 20.5762 20.1533C20.7968 20.2585 21.0366 20.3152 21.2848 20.3152C21.7559 20.3152 22.1989 20.116 22.5318 19.7546C22.8648 19.3932 23.0484 18.9125 23.0484 18.4013C23.0484 17.8901 22.8648 17.4094 22.5228 17.0385L21.1218 15.5987L22.1406 14.9353C22.5039 14.6971 22.7826 14.3476 22.9471 13.9257L24.2892 10.485L24.8174 11.0581C24.9615 11.2147 25.1537 11.301 25.3584 11.301C25.5629 11.301 25.7552 11.2147 25.8993 11.0581L28.4624 8.27664C28.7608 7.95271 28.7608 7.42598 28.4624 7.10225ZM9.67675 27.7313V14.0926H15.755C15.6259 14.1956 15.4996 14.297 15.3827 14.3917C14.2851 15.28 14.4032 16.4034 14.8794 17.1586C14.8833 17.1648 14.8875 17.171 14.8915 17.1769L14.989 17.3174C14.9962 17.3283 15.0034 17.3381 15.0089 17.3455C15.2738 17.7254 15.6388 17.9921 16.0612 18.1159C16.2265 18.1653 16.3976 18.1896 16.57 18.1896C16.8775 18.1896 17.1872 18.1077 17.4751 17.9569V27.7315H9.67675V27.7313ZM19.4548 20.3862C19.1667 20.6985 18.7213 20.738 18.3932 20.5045V17.9698L19.5703 19.247C19.777 19.6016 19.7393 20.0772 19.4548 20.3862ZM21.8826 17.7521C22.0423 17.9254 22.1305 18.1559 22.1305 18.4011C22.1305 18.6464 22.0425 18.8767 21.8824 19.05C21.7229 19.2233 21.5107 19.3189 21.2846 19.3189C21.0588 19.3189 20.8464 19.2235 20.6867 19.05L20.274 18.6021C20.2224 18.5262 20.1669 18.4527 20.1038 18.384L18.8812 17.0574L20.3046 16.1306L21.8826 17.7521ZM25.3582 10.2362L24.459 9.26038C24.4581 9.25939 24.4575 9.25819 24.4566 9.2572L21.6006 6.15835C21.4212 5.96371 21.1308 5.96371 20.9516 6.15835C20.7722 6.35298 20.7722 6.66835 20.9516 6.86259L23.5888 9.72397L22.1015 13.5374C22.0128 13.7651 21.8621 13.9536 21.6669 14.0817L17.1786 17.0044C16.9034 17.1839 16.5852 17.2393 16.3028 17.1544C16.0728 17.0871 15.8837 16.949 15.7482 16.755C15.7409 16.7438 15.7337 16.7339 15.7263 16.7239L15.6312 16.5869C15.2031 15.8991 15.5971 15.4605 15.9314 15.1897C16.3304 14.8668 16.8336 14.47 17.2124 14.1711L17.433 13.997C17.4422 13.9898 17.4492 13.9809 17.4578 13.9731C17.4701 13.9617 17.4828 13.9508 17.494 13.938C17.5046 13.9259 17.5138 13.9127 17.5232 13.8998C17.532 13.8874 17.5412 13.8755 17.5489 13.8623C17.5573 13.8482 17.5639 13.8333 17.5709 13.8183C17.5775 13.8044 17.5841 13.7906 17.5895 13.7761C17.5951 13.7605 17.599 13.7444 17.603 13.7283C17.6069 13.7133 17.6111 13.6988 17.6137 13.6832C17.6168 13.6647 17.6177 13.6458 17.6188 13.6269C17.6196 13.6159 17.6218 13.6053 17.6218 13.5942C17.6218 13.5914 17.621 13.5888 17.621 13.586C17.6209 13.5661 17.6181 13.5464 17.6155 13.5265C17.6139 13.5135 17.6133 13.5004 17.6108 13.4878C17.6074 13.4711 17.6018 13.4551 17.5966 13.4388C17.592 13.4239 17.5885 13.4087 17.5827 13.3946C17.5773 13.3814 17.57 13.3691 17.5636 13.3565C17.5553 13.3404 17.5476 13.3238 17.5379 13.3089C17.5362 13.3065 17.5353 13.3037 17.5336 13.3011C17.527 13.2912 17.5188 13.2834 17.5114 13.2742C17.501 13.2609 17.4909 13.2471 17.4791 13.2352C17.4679 13.2236 17.456 13.2139 17.4439 13.2037C17.4325 13.194 17.4215 13.1842 17.4092 13.1756C17.3963 13.1667 17.3827 13.1595 17.3691 13.1521C17.3561 13.145 17.3433 13.1376 17.3297 13.1316C17.3155 13.1256 17.301 13.1214 17.2865 13.1171C17.2724 13.1127 17.2586 13.1081 17.2441 13.1053C17.2274 13.1019 17.2105 13.1011 17.1936 13.0997C17.1832 13.0989 17.1731 13.0963 17.1624 13.0963H12.2381V12.0485C12.2381 11.715 12.3528 11.4143 12.5529 11.2237C12.5959 11.1828 12.6423 11.1458 12.6908 11.1139L20.5907 5.93642C20.7113 5.85733 20.7919 5.72226 20.809 5.57025C20.826 5.41825 20.7777 5.26625 20.6779 5.15807L20.3498 4.80187L22.6969 2.25505L27.7046 7.68914L25.3582 10.2362Z" fill="#323232"/>
<path d="M26.3916 25.1447H19.7694C19.5159 25.1447 19.3104 25.3676 19.3104 25.6427C19.3104 25.9178 19.5159 26.1407 19.7694 26.1407H25.9326V30.3176H1.06836V26.1407H7.38105C7.63459 26.1407 7.84003 25.9178 7.84003 25.6427C7.84003 25.3676 7.63459 25.1447 7.38105 25.1447H0.609375C0.355832 25.1447 0.150391 25.3676 0.150391 25.6427V30.8156V40.0795C0.150391 40.3546 0.355832 40.5775 0.609375 40.5775H26.3916C26.6452 40.5775 26.8506 40.3546 26.8506 40.0795V30.8156V25.6427C26.8506 25.3678 26.6452 25.1447 26.3916 25.1447ZM25.9326 39.5814H1.06836V31.3137H25.9326V39.5814Z" fill="#323232"/>
<path d="M14.582 20.5308H14.2245C14.6964 20.267 15.0142 19.7245 14.9934 19.1039C14.967 18.314 14.3705 17.6602 13.6427 17.6237C12.8288 17.5831 12.1571 18.2871 12.1571 19.1613C12.1571 19.7578 12.4697 20.275 12.9269 20.5306H12.5694C11.7403 20.5306 11.0684 21.2597 11.0684 22.1594V24.4783C11.0684 24.5914 11.153 24.6833 11.2573 24.6833H15.8941C15.9984 24.6833 16.083 24.5914 16.083 24.4783V22.1594C16.083 21.2601 15.4109 20.5308 14.582 20.5308Z" fill="#999898"/>
</svg>
