<svg width="170" height="44" viewBox="0 0 170 44" fill="none" xmlns="http://www.w3.org/2000/svg">
<path d="M81.624 16.614C82.158 16.614 82.635 16.524 83.055 16.344C83.475 16.164 83.829 15.912 84.117 15.588C84.411 15.264 84.633 14.877 84.783 14.427C84.939 13.977 85.017 13.482 85.017 12.942V5.103H86.754V12.942C86.754 13.686 86.634 14.376 86.394 15.012C86.16 15.648 85.821 16.2 85.377 16.668C84.939 17.13 84.402 17.493 83.766 17.757C83.13 18.021 82.416 18.153 81.624 18.153C80.832 18.153 80.118 18.021 79.482 17.757C78.846 17.493 78.306 17.13 77.862 16.668C77.418 16.2 77.076 15.648 76.836 15.012C76.602 14.376 76.485 13.686 76.485 12.942V5.103H78.222V12.933C78.222 13.473 78.297 13.968 78.447 14.418C78.603 14.868 78.825 15.255 79.113 15.579C79.407 15.903 79.764 16.158 80.184 16.344C80.61 16.524 81.09 16.614 81.624 16.614ZM94.3759 10.386C94.3039 10.518 94.1929 10.584 94.0429 10.584C93.9529 10.584 93.8509 10.551 93.7369 10.485C93.6229 10.419 93.4819 10.347 93.3139 10.269C93.1519 10.185 92.9569 10.11 92.7289 10.044C92.5009 9.972 92.2309 9.936 91.9189 9.936C91.6489 9.936 91.4059 9.972 91.1899 10.044C90.9739 10.11 90.7879 10.203 90.6319 10.323C90.4819 10.443 90.3649 10.584 90.2809 10.746C90.2029 10.902 90.1639 11.073 90.1639 11.259C90.1639 11.493 90.2299 11.688 90.3619 11.844C90.4999 12 90.6799 12.135 90.9019 12.249C91.1239 12.363 91.3759 12.465 91.6579 12.555C91.9399 12.639 92.2279 12.732 92.5219 12.834C92.8219 12.93 93.1129 13.038 93.3949 13.158C93.6769 13.278 93.9289 13.428 94.1509 13.608C94.3729 13.788 94.5499 14.01 94.6819 14.274C94.8199 14.532 94.8889 14.844 94.8889 15.21C94.8889 15.63 94.8139 16.02 94.6639 16.38C94.5139 16.734 94.2919 17.043 93.9979 17.307C93.7039 17.565 93.3439 17.769 92.9179 17.919C92.4919 18.069 91.9999 18.144 91.4419 18.144C90.8059 18.144 90.2299 18.042 89.7139 17.838C89.1979 17.628 88.7599 17.361 88.3999 17.037L88.7779 16.425C88.8259 16.347 88.8829 16.287 88.9489 16.245C89.0149 16.203 89.0989 16.182 89.2009 16.182C89.3089 16.182 89.4229 16.224 89.5429 16.308C89.6629 16.392 89.8069 16.485 89.9749 16.587C90.1489 16.689 90.3589 16.782 90.6049 16.866C90.8509 16.95 91.1569 16.992 91.5229 16.992C91.8349 16.992 92.1079 16.953 92.3419 16.875C92.5759 16.791 92.7709 16.68 92.9269 16.542C93.0829 16.404 93.1969 16.245 93.2689 16.065C93.3469 15.885 93.3859 15.693 93.3859 15.489C93.3859 15.237 93.3169 15.03 93.1789 14.868C93.0469 14.7 92.8699 14.559 92.6479 14.445C92.4259 14.325 92.1709 14.223 91.8829 14.139C91.6009 14.049 91.3099 13.956 91.0099 13.86C90.7159 13.764 90.4249 13.656 90.1369 13.536C89.8549 13.41 89.6029 13.254 89.3809 13.068C89.1589 12.882 88.9789 12.654 88.8409 12.384C88.7089 12.108 88.6429 11.775 88.6429 11.385C88.6429 11.037 88.7149 10.704 88.8589 10.386C89.0029 10.062 89.2129 9.78 89.4889 9.54C89.7649 9.294 90.1039 9.099 90.5059 8.955C90.9079 8.811 91.3669 8.739 91.8829 8.739C92.4829 8.739 93.0199 8.835 93.4939 9.027C93.9739 9.213 94.3879 9.471 94.7359 9.801L94.3759 10.386ZM104.35 8.883V18H103.396C103.168 18 103.024 17.889 102.964 17.667L102.838 16.686C102.442 17.124 101.998 17.478 101.506 17.748C101.014 18.012 100.45 18.144 99.814 18.144C99.316 18.144 98.875 18.063 98.491 17.901C98.113 17.733 97.795 17.499 97.537 17.199C97.279 16.899 97.084 16.536 96.952 16.11C96.826 15.684 96.763 15.213 96.763 14.697V8.883H98.365V14.697C98.365 15.387 98.521 15.921 98.833 16.299C99.151 16.677 99.634 16.866 100.282 16.866C100.756 16.866 101.197 16.755 101.605 16.533C102.019 16.305 102.4 15.993 102.748 15.597V8.883H104.35ZM111.831 13.896C111.093 13.92 110.463 13.98 109.941 14.076C109.425 14.166 109.002 14.286 108.672 14.436C108.348 14.586 108.111 14.763 107.961 14.967C107.817 15.171 107.745 15.399 107.745 15.651C107.745 15.891 107.784 16.098 107.862 16.272C107.94 16.446 108.045 16.59 108.177 16.704C108.315 16.812 108.474 16.893 108.654 16.947C108.84 16.995 109.038 17.019 109.248 17.019C109.53 17.019 109.788 16.992 110.022 16.938C110.256 16.878 110.475 16.794 110.679 16.686C110.889 16.578 111.087 16.449 111.273 16.299C111.465 16.149 111.651 15.978 111.831 15.786V13.896ZM106.656 10.17C107.16 9.684 107.703 9.321 108.285 9.081C108.867 8.841 109.512 8.721 110.22 8.721C110.73 8.721 111.183 8.805 111.579 8.973C111.975 9.141 112.308 9.375 112.578 9.675C112.848 9.975 113.052 10.338 113.19 10.764C113.328 11.19 113.397 11.658 113.397 12.168V18H112.686C112.53 18 112.41 17.976 112.326 17.928C112.242 17.874 112.176 17.772 112.128 17.622L111.948 16.758C111.708 16.98 111.474 17.178 111.246 17.352C111.018 17.52 110.778 17.664 110.526 17.784C110.274 17.898 110.004 17.985 109.716 18.045C109.434 18.111 109.119 18.144 108.771 18.144C108.417 18.144 108.084 18.096 107.772 18C107.46 17.898 107.187 17.748 106.953 17.55C106.725 17.352 106.542 17.103 106.404 16.803C106.272 16.497 106.206 16.137 106.206 15.723C106.206 15.363 106.305 15.018 106.503 14.688C106.701 14.352 107.022 14.055 107.466 13.797C107.91 13.539 108.489 13.329 109.203 13.167C109.917 12.999 110.793 12.903 111.831 12.879V12.168C111.831 11.46 111.678 10.926 111.372 10.566C111.066 10.2 110.619 10.017 110.031 10.017C109.635 10.017 109.302 10.068 109.032 10.17C108.768 10.266 108.537 10.377 108.339 10.503C108.147 10.623 107.979 10.734 107.835 10.836C107.697 10.932 107.559 10.98 107.421 10.98C107.313 10.98 107.22 10.953 107.142 10.899C107.064 10.839 106.998 10.767 106.944 10.683L106.656 10.17ZM112.641 4.959L110.544 7.281C110.46 7.371 110.376 7.437 110.292 7.479C110.214 7.515 110.112 7.533 109.986 7.533H109.032L110.364 5.355C110.448 5.217 110.538 5.118 110.634 5.058C110.736 4.992 110.883 4.959 111.075 4.959H112.641ZM117.358 10.71C117.646 10.086 118 9.6 118.42 9.252C118.84 8.898 119.353 8.721 119.959 8.721C120.151 8.721 120.334 8.742 120.508 8.784C120.688 8.826 120.847 8.892 120.985 8.982L120.868 10.179C120.832 10.329 120.742 10.404 120.598 10.404C120.514 10.404 120.391 10.386 120.229 10.35C120.067 10.314 119.884 10.296 119.68 10.296C119.392 10.296 119.134 10.338 118.906 10.422C118.684 10.506 118.483 10.632 118.303 10.8C118.129 10.962 117.97 11.166 117.826 11.412C117.688 11.652 117.562 11.928 117.448 12.24V18H115.837V8.883H116.755C116.929 8.883 117.049 8.916 117.115 8.982C117.181 9.048 117.226 9.162 117.25 9.324L117.358 10.71ZM124.086 8.883V18H122.484V8.883H124.086ZM124.428 6.021C124.428 6.177 124.395 6.324 124.329 6.462C124.269 6.594 124.185 6.714 124.077 6.822C123.975 6.924 123.852 7.005 123.708 7.065C123.57 7.125 123.423 7.155 123.267 7.155C123.111 7.155 122.964 7.125 122.826 7.065C122.694 7.005 122.577 6.924 122.475 6.822C122.373 6.714 122.292 6.594 122.232 6.462C122.172 6.324 122.142 6.177 122.142 6.021C122.142 5.865 122.172 5.718 122.232 5.58C122.292 5.436 122.373 5.313 122.475 5.211C122.577 5.103 122.694 5.019 122.826 4.959C122.964 4.899 123.111 4.869 123.267 4.869C123.423 4.869 123.57 4.899 123.708 4.959C123.852 5.019 123.975 5.103 124.077 5.211C124.185 5.313 124.269 5.436 124.329 5.58C124.395 5.718 124.428 5.865 124.428 6.021ZM130.561 8.739C131.227 8.739 131.827 8.85 132.361 9.072C132.895 9.294 133.351 9.609 133.729 10.017C134.107 10.425 134.395 10.92 134.593 11.502C134.797 12.078 134.899 12.723 134.899 13.437C134.899 14.157 134.797 14.805 134.593 15.381C134.395 15.957 134.107 16.449 133.729 16.857C133.351 17.265 132.895 17.58 132.361 17.802C131.827 18.018 131.227 18.126 130.561 18.126C129.889 18.126 129.283 18.018 128.743 17.802C128.209 17.58 127.753 17.265 127.375 16.857C126.997 16.449 126.706 15.957 126.502 15.381C126.304 14.805 126.205 14.157 126.205 13.437C126.205 12.723 126.304 12.078 126.502 11.502C126.706 10.92 126.997 10.425 127.375 10.017C127.753 9.609 128.209 9.294 128.743 9.072C129.283 8.85 129.889 8.739 130.561 8.739ZM130.561 16.875C131.461 16.875 132.133 16.575 132.577 15.975C133.021 15.369 133.243 14.526 133.243 13.446C133.243 12.36 133.021 11.514 132.577 10.908C132.133 10.302 131.461 9.999 130.561 9.999C130.105 9.999 129.706 10.077 129.364 10.233C129.028 10.389 128.746 10.614 128.518 10.908C128.296 11.202 128.128 11.565 128.014 11.997C127.906 12.423 127.852 12.906 127.852 13.446C127.852 14.526 128.074 15.369 128.518 15.975C128.968 16.575 129.649 16.875 130.561 16.875ZM142.241 10.386C142.169 10.518 142.058 10.584 141.908 10.584C141.818 10.584 141.716 10.551 141.602 10.485C141.488 10.419 141.347 10.347 141.179 10.269C141.017 10.185 140.822 10.11 140.594 10.044C140.366 9.972 140.096 9.936 139.784 9.936C139.514 9.936 139.271 9.972 139.055 10.044C138.839 10.11 138.653 10.203 138.497 10.323C138.347 10.443 138.23 10.584 138.146 10.746C138.068 10.902 138.029 11.073 138.029 11.259C138.029 11.493 138.095 11.688 138.227 11.844C138.365 12 138.545 12.135 138.767 12.249C138.989 12.363 139.241 12.465 139.523 12.555C139.805 12.639 140.093 12.732 140.387 12.834C140.687 12.93 140.978 13.038 141.26 13.158C141.542 13.278 141.794 13.428 142.016 13.608C142.238 13.788 142.415 14.01 142.547 14.274C142.685 14.532 142.754 14.844 142.754 15.21C142.754 15.63 142.679 16.02 142.529 16.38C142.379 16.734 142.157 17.043 141.863 17.307C141.569 17.565 141.209 17.769 140.783 17.919C140.357 18.069 139.865 18.144 139.307 18.144C138.671 18.144 138.095 18.042 137.579 17.838C137.063 17.628 136.625 17.361 136.265 17.037L136.643 16.425C136.691 16.347 136.748 16.287 136.814 16.245C136.88 16.203 136.964 16.182 137.066 16.182C137.174 16.182 137.288 16.224 137.408 16.308C137.528 16.392 137.672 16.485 137.84 16.587C138.014 16.689 138.224 16.782 138.47 16.866C138.716 16.95 139.022 16.992 139.388 16.992C139.7 16.992 139.973 16.953 140.207 16.875C140.441 16.791 140.636 16.68 140.792 16.542C140.948 16.404 141.062 16.245 141.134 16.065C141.212 15.885 141.251 15.693 141.251 15.489C141.251 15.237 141.182 15.03 141.044 14.868C140.912 14.7 140.735 14.559 140.513 14.445C140.291 14.325 140.036 14.223 139.748 14.139C139.466 14.049 139.175 13.956 138.875 13.86C138.581 13.764 138.29 13.656 138.002 13.536C137.72 13.41 137.468 13.254 137.246 13.068C137.024 12.882 136.844 12.654 136.706 12.384C136.574 12.108 136.508 11.775 136.508 11.385C136.508 11.037 136.58 10.704 136.724 10.386C136.868 10.062 137.078 9.78 137.354 9.54C137.63 9.294 137.969 9.099 138.371 8.955C138.773 8.811 139.232 8.739 139.748 8.739C140.348 8.739 140.885 8.835 141.359 9.027C141.839 9.213 142.253 9.471 142.601 9.801L142.241 10.386ZM82.614 32.503C82.566 32.569 82.518 32.62 82.47 32.656C82.422 32.692 82.356 32.71 82.272 32.71C82.182 32.71 82.083 32.674 81.975 32.602C81.867 32.524 81.732 32.44 81.57 32.35C81.414 32.26 81.219 32.179 80.985 32.107C80.757 32.029 80.475 31.99 80.139 31.99C79.689 31.99 79.293 32.071 78.951 32.233C78.609 32.389 78.321 32.617 78.087 32.917C77.859 33.217 77.685 33.58 77.565 34.006C77.451 34.432 77.394 34.909 77.394 35.437C77.394 35.989 77.457 36.481 77.583 36.913C77.709 37.339 77.886 37.699 78.114 37.993C78.348 38.281 78.627 38.503 78.951 38.659C79.281 38.809 79.65 38.884 80.058 38.884C80.448 38.884 80.769 38.839 81.021 38.749C81.273 38.653 81.48 38.548 81.642 38.434C81.81 38.32 81.948 38.218 82.056 38.128C82.17 38.032 82.281 37.984 82.389 37.984C82.521 37.984 82.623 38.035 82.695 38.137L83.145 38.722C82.947 38.968 82.722 39.178 82.47 39.352C82.218 39.526 81.945 39.673 81.651 39.793C81.363 39.907 81.06 39.991 80.742 40.045C80.424 40.099 80.1 40.126 79.77 40.126C79.2 40.126 78.669 40.021 78.177 39.811C77.691 39.601 77.268 39.298 76.908 38.902C76.548 38.5 76.266 38.008 76.062 37.426C75.858 36.844 75.756 36.181 75.756 35.437C75.756 34.759 75.849 34.132 76.035 33.556C76.227 32.98 76.503 32.485 76.863 32.071C77.229 31.651 77.676 31.324 78.204 31.09C78.738 30.856 79.35 30.739 80.04 30.739C80.682 30.739 81.246 30.844 81.732 31.054C82.224 31.258 82.659 31.549 83.037 31.927L82.614 32.503ZM89.8057 35.896C89.0677 35.92 88.4377 35.98 87.9157 36.076C87.3997 36.166 86.9767 36.286 86.6467 36.436C86.3227 36.586 86.0857 36.763 85.9357 36.967C85.7917 37.171 85.7197 37.399 85.7197 37.651C85.7197 37.891 85.7587 38.098 85.8367 38.272C85.9147 38.446 86.0197 38.59 86.1517 38.704C86.2897 38.812 86.4487 38.893 86.6287 38.947C86.8147 38.995 87.0127 39.019 87.2227 39.019C87.5047 39.019 87.7627 38.992 87.9967 38.938C88.2307 38.878 88.4497 38.794 88.6537 38.686C88.8637 38.578 89.0617 38.449 89.2477 38.299C89.4397 38.149 89.6257 37.978 89.8057 37.786V35.896ZM84.6307 32.17C85.1347 31.684 85.6777 31.321 86.2597 31.081C86.8417 30.841 87.4867 30.721 88.1947 30.721C88.7047 30.721 89.1577 30.805 89.5537 30.973C89.9497 31.141 90.2827 31.375 90.5527 31.675C90.8227 31.975 91.0267 32.338 91.1647 32.764C91.3027 33.19 91.3717 33.658 91.3717 34.168V40H90.6607C90.5047 40 90.3847 39.976 90.3007 39.928C90.2167 39.874 90.1507 39.772 90.1027 39.622L89.9227 38.758C89.6827 38.98 89.4487 39.178 89.2207 39.352C88.9927 39.52 88.7527 39.664 88.5007 39.784C88.2487 39.898 87.9787 39.985 87.6907 40.045C87.4087 40.111 87.0937 40.144 86.7457 40.144C86.3917 40.144 86.0587 40.096 85.7467 40C85.4347 39.898 85.1617 39.748 84.9277 39.55C84.6997 39.352 84.5167 39.103 84.3787 38.803C84.2467 38.497 84.1807 38.137 84.1807 37.723C84.1807 37.363 84.2797 37.018 84.4777 36.688C84.6757 36.352 84.9967 36.055 85.4407 35.797C85.8847 35.539 86.4637 35.329 87.1777 35.167C87.8917 34.999 88.7677 34.903 89.8057 34.879V34.168C89.8057 33.46 89.6527 32.926 89.3467 32.566C89.0407 32.2 88.5937 32.017 88.0057 32.017C87.6097 32.017 87.2767 32.068 87.0067 32.17C86.7427 32.266 86.5117 32.377 86.3137 32.503C86.1217 32.623 85.9537 32.734 85.8097 32.836C85.6717 32.932 85.5337 32.98 85.3957 32.98C85.2877 32.98 85.1947 32.953 85.1167 32.899C85.0387 32.839 84.9727 32.767 84.9187 32.683L84.6307 32.17ZM99.752 33.052C99.452 32.65 99.128 32.371 98.78 32.215C98.432 32.053 98.042 31.972 97.61 31.972C96.764 31.972 96.113 32.275 95.657 32.881C95.201 33.487 94.973 34.351 94.973 35.473C94.973 36.067 95.024 36.577 95.126 37.003C95.228 37.423 95.378 37.771 95.576 38.047C95.774 38.317 96.017 38.515 96.305 38.641C96.593 38.767 96.92 38.83 97.286 38.83C97.814 38.83 98.273 38.71 98.663 38.47C99.059 38.23 99.422 37.891 99.752 37.453V33.052ZM101.354 26.743V40H100.4C100.172 40 100.028 39.889 99.968 39.667L99.824 38.56C99.434 39.028 98.99 39.406 98.492 39.694C97.994 39.982 97.418 40.126 96.764 40.126C96.242 40.126 95.768 40.027 95.342 39.829C94.916 39.625 94.553 39.328 94.253 38.938C93.953 38.548 93.722 38.062 93.56 37.48C93.398 36.898 93.317 36.229 93.317 35.473C93.317 34.801 93.407 34.177 93.587 33.601C93.767 33.019 94.025 32.515 94.361 32.089C94.697 31.663 95.108 31.33 95.594 31.09C96.086 30.844 96.638 30.721 97.25 30.721C97.808 30.721 98.285 30.817 98.681 31.009C99.083 31.195 99.44 31.456 99.752 31.792V26.743H101.354ZM108.825 35.896C108.087 35.92 107.457 35.98 106.935 36.076C106.419 36.166 105.996 36.286 105.666 36.436C105.342 36.586 105.105 36.763 104.955 36.967C104.811 37.171 104.739 37.399 104.739 37.651C104.739 37.891 104.778 38.098 104.856 38.272C104.934 38.446 105.039 38.59 105.171 38.704C105.309 38.812 105.468 38.893 105.648 38.947C105.834 38.995 106.032 39.019 106.242 39.019C106.524 39.019 106.782 38.992 107.016 38.938C107.25 38.878 107.469 38.794 107.673 38.686C107.883 38.578 108.081 38.449 108.267 38.299C108.459 38.149 108.645 37.978 108.825 37.786V35.896ZM103.65 32.17C104.154 31.684 104.697 31.321 105.279 31.081C105.861 30.841 106.506 30.721 107.214 30.721C107.724 30.721 108.177 30.805 108.573 30.973C108.969 31.141 109.302 31.375 109.572 31.675C109.842 31.975 110.046 32.338 110.184 32.764C110.322 33.19 110.391 33.658 110.391 34.168V40H109.68C109.524 40 109.404 39.976 109.32 39.928C109.236 39.874 109.17 39.772 109.122 39.622L108.942 38.758C108.702 38.98 108.468 39.178 108.24 39.352C108.012 39.52 107.772 39.664 107.52 39.784C107.268 39.898 106.998 39.985 106.71 40.045C106.428 40.111 106.113 40.144 105.765 40.144C105.411 40.144 105.078 40.096 104.766 40C104.454 39.898 104.181 39.748 103.947 39.55C103.719 39.352 103.536 39.103 103.398 38.803C103.266 38.497 103.2 38.137 103.2 37.723C103.2 37.363 103.299 37.018 103.497 36.688C103.695 36.352 104.016 36.055 104.46 35.797C104.904 35.539 105.483 35.329 106.197 35.167C106.911 34.999 107.787 34.903 108.825 34.879V34.168C108.825 33.46 108.672 32.926 108.366 32.566C108.06 32.2 107.613 32.017 107.025 32.017C106.629 32.017 106.296 32.068 106.026 32.17C105.762 32.266 105.531 32.377 105.333 32.503C105.141 32.623 104.973 32.734 104.829 32.836C104.691 32.932 104.553 32.98 104.415 32.98C104.307 32.98 104.214 32.953 104.136 32.899C104.058 32.839 103.992 32.767 103.938 32.683L103.65 32.17ZM118.142 32.386C118.07 32.518 117.959 32.584 117.809 32.584C117.719 32.584 117.617 32.551 117.503 32.485C117.389 32.419 117.248 32.347 117.08 32.269C116.918 32.185 116.723 32.11 116.495 32.044C116.267 31.972 115.997 31.936 115.685 31.936C115.415 31.936 115.172 31.972 114.956 32.044C114.74 32.11 114.554 32.203 114.398 32.323C114.248 32.443 114.131 32.584 114.047 32.746C113.969 32.902 113.93 33.073 113.93 33.259C113.93 33.493 113.996 33.688 114.128 33.844C114.266 34 114.446 34.135 114.668 34.249C114.89 34.363 115.142 34.465 115.424 34.555C115.706 34.639 115.994 34.732 116.288 34.834C116.588 34.93 116.879 35.038 117.161 35.158C117.443 35.278 117.695 35.428 117.917 35.608C118.139 35.788 118.316 36.01 118.448 36.274C118.586 36.532 118.655 36.844 118.655 37.21C118.655 37.63 118.58 38.02 118.43 38.38C118.28 38.734 118.058 39.043 117.764 39.307C117.47 39.565 117.11 39.769 116.684 39.919C116.258 40.069 115.766 40.144 115.208 40.144C114.572 40.144 113.996 40.042 113.48 39.838C112.964 39.628 112.526 39.361 112.166 39.037L112.544 38.425C112.592 38.347 112.649 38.287 112.715 38.245C112.781 38.203 112.865 38.182 112.967 38.182C113.075 38.182 113.189 38.224 113.309 38.308C113.429 38.392 113.573 38.485 113.741 38.587C113.915 38.689 114.125 38.782 114.371 38.866C114.617 38.95 114.923 38.992 115.289 38.992C115.601 38.992 115.874 38.953 116.107 38.875C116.342 38.791 116.537 38.68 116.693 38.542C116.849 38.404 116.963 38.245 117.035 38.065C117.113 37.885 117.152 37.693 117.152 37.489C117.152 37.237 117.083 37.03 116.945 36.868C116.813 36.7 116.636 36.559 116.414 36.445C116.192 36.325 115.937 36.223 115.649 36.139C115.367 36.049 115.076 35.956 114.776 35.86C114.482 35.764 114.191 35.656 113.903 35.536C113.621 35.41 113.369 35.254 113.147 35.068C112.925 34.882 112.745 34.654 112.607 34.384C112.475 34.108 112.409 33.775 112.409 33.385C112.409 33.037 112.481 32.704 112.625 32.386C112.769 32.062 112.979 31.78 113.255 31.54C113.531 31.294 113.87 31.099 114.272 30.955C114.674 30.811 115.133 30.739 115.649 30.739C116.249 30.739 116.786 30.835 117.26 31.027C117.74 31.213 118.154 31.471 118.502 31.801L118.142 32.386ZM123.418 40.144C122.698 40.144 122.143 39.943 121.753 39.541C121.369 39.139 121.177 38.56 121.177 37.804V32.224H120.079C119.983 32.224 119.902 32.197 119.836 32.143C119.77 32.083 119.737 31.993 119.737 31.873V31.234L121.231 31.045L121.6 28.228C121.618 28.138 121.657 28.066 121.717 28.012C121.783 27.952 121.867 27.922 121.969 27.922H122.779V31.063H125.416V32.224H122.779V37.696C122.779 38.08 122.872 38.365 123.058 38.551C123.244 38.737 123.484 38.83 123.778 38.83C123.946 38.83 124.09 38.809 124.21 38.767C124.336 38.719 124.444 38.668 124.534 38.614C124.624 38.56 124.699 38.512 124.759 38.47C124.825 38.422 124.882 38.398 124.93 38.398C125.014 38.398 125.089 38.449 125.155 38.551L125.623 39.316C125.347 39.574 125.014 39.778 124.624 39.928C124.234 40.072 123.832 40.144 123.418 40.144ZM128.591 32.71C128.879 32.086 129.233 31.6 129.653 31.252C130.073 30.898 130.586 30.721 131.192 30.721C131.384 30.721 131.567 30.742 131.741 30.784C131.921 30.826 132.08 30.892 132.218 30.982L132.101 32.179C132.065 32.329 131.975 32.404 131.831 32.404C131.747 32.404 131.624 32.386 131.462 32.35C131.3 32.314 131.117 32.296 130.913 32.296C130.625 32.296 130.367 32.338 130.139 32.422C129.917 32.506 129.716 32.632 129.536 32.8C129.362 32.962 129.203 33.166 129.059 33.412C128.921 33.652 128.795 33.928 128.681 34.24V40H127.07V30.883H127.988C128.162 30.883 128.282 30.916 128.348 30.982C128.414 31.048 128.459 31.162 128.483 31.324L128.591 32.71ZM138.427 35.896C137.689 35.92 137.059 35.98 136.537 36.076C136.021 36.166 135.598 36.286 135.268 36.436C134.944 36.586 134.707 36.763 134.557 36.967C134.413 37.171 134.341 37.399 134.341 37.651C134.341 37.891 134.38 38.098 134.458 38.272C134.536 38.446 134.641 38.59 134.773 38.704C134.911 38.812 135.07 38.893 135.25 38.947C135.436 38.995 135.634 39.019 135.844 39.019C136.126 39.019 136.384 38.992 136.618 38.938C136.852 38.878 137.071 38.794 137.275 38.686C137.485 38.578 137.683 38.449 137.869 38.299C138.061 38.149 138.247 37.978 138.427 37.786V35.896ZM133.252 32.17C133.756 31.684 134.299 31.321 134.881 31.081C135.463 30.841 136.108 30.721 136.816 30.721C137.326 30.721 137.779 30.805 138.175 30.973C138.571 31.141 138.904 31.375 139.174 31.675C139.444 31.975 139.648 32.338 139.786 32.764C139.924 33.19 139.993 33.658 139.993 34.168V40H139.282C139.126 40 139.006 39.976 138.922 39.928C138.838 39.874 138.772 39.772 138.724 39.622L138.544 38.758C138.304 38.98 138.07 39.178 137.842 39.352C137.614 39.52 137.374 39.664 137.122 39.784C136.87 39.898 136.6 39.985 136.312 40.045C136.03 40.111 135.715 40.144 135.367 40.144C135.013 40.144 134.68 40.096 134.368 40C134.056 39.898 133.783 39.748 133.549 39.55C133.321 39.352 133.138 39.103 133 38.803C132.868 38.497 132.802 38.137 132.802 37.723C132.802 37.363 132.901 37.018 133.099 36.688C133.297 36.352 133.618 36.055 134.062 35.797C134.506 35.539 135.085 35.329 135.799 35.167C136.513 34.999 137.389 34.903 138.427 34.879V34.168C138.427 33.46 138.274 32.926 137.968 32.566C137.662 32.2 137.215 32.017 136.627 32.017C136.231 32.017 135.898 32.068 135.628 32.17C135.364 32.266 135.133 32.377 134.935 32.503C134.743 32.623 134.575 32.734 134.431 32.836C134.293 32.932 134.155 32.98 134.017 32.98C133.909 32.98 133.816 32.953 133.738 32.899C133.66 32.839 133.594 32.767 133.54 32.683L133.252 32.17ZM148.373 33.052C148.073 32.65 147.749 32.371 147.401 32.215C147.053 32.053 146.663 31.972 146.231 31.972C145.385 31.972 144.734 32.275 144.278 32.881C143.822 33.487 143.594 34.351 143.594 35.473C143.594 36.067 143.645 36.577 143.747 37.003C143.849 37.423 143.999 37.771 144.197 38.047C144.395 38.317 144.638 38.515 144.926 38.641C145.214 38.767 145.541 38.83 145.907 38.83C146.435 38.83 146.894 38.71 147.284 38.47C147.68 38.23 148.043 37.891 148.373 37.453V33.052ZM149.975 26.743V40H149.021C148.793 40 148.649 39.889 148.589 39.667L148.445 38.56C148.055 39.028 147.611 39.406 147.113 39.694C146.615 39.982 146.039 40.126 145.385 40.126C144.863 40.126 144.389 40.027 143.963 39.829C143.537 39.625 143.174 39.328 142.874 38.938C142.574 38.548 142.343 38.062 142.181 37.48C142.019 36.898 141.938 36.229 141.938 35.473C141.938 34.801 142.028 34.177 142.208 33.601C142.388 33.019 142.646 32.515 142.982 32.089C143.318 31.663 143.729 31.33 144.215 31.09C144.707 30.844 145.259 30.721 145.871 30.721C146.429 30.721 146.906 30.817 147.302 31.009C147.704 31.195 148.061 31.456 148.373 31.792V26.743H149.975ZM156.348 30.739C157.014 30.739 157.614 30.85 158.148 31.072C158.682 31.294 159.138 31.609 159.516 32.017C159.894 32.425 160.182 32.92 160.38 33.502C160.584 34.078 160.686 34.723 160.686 35.437C160.686 36.157 160.584 36.805 160.38 37.381C160.182 37.957 159.894 38.449 159.516 38.857C159.138 39.265 158.682 39.58 158.148 39.802C157.614 40.018 157.014 40.126 156.348 40.126C155.676 40.126 155.07 40.018 154.53 39.802C153.996 39.58 153.54 39.265 153.162 38.857C152.784 38.449 152.493 37.957 152.289 37.381C152.091 36.805 151.992 36.157 151.992 35.437C151.992 34.723 152.091 34.078 152.289 33.502C152.493 32.92 152.784 32.425 153.162 32.017C153.54 31.609 153.996 31.294 154.53 31.072C155.07 30.85 155.676 30.739 156.348 30.739ZM156.348 38.875C157.248 38.875 157.92 38.575 158.364 37.975C158.808 37.369 159.03 36.526 159.03 35.446C159.03 34.36 158.808 33.514 158.364 32.908C157.92 32.302 157.248 31.999 156.348 31.999C155.892 31.999 155.493 32.077 155.151 32.233C154.815 32.389 154.533 32.614 154.305 32.908C154.083 33.202 153.915 33.565 153.801 33.997C153.693 34.423 153.639 34.906 153.639 35.446C153.639 36.526 153.861 37.369 154.305 37.975C154.755 38.575 155.436 38.875 156.348 38.875ZM168.028 32.386C167.956 32.518 167.845 32.584 167.695 32.584C167.605 32.584 167.503 32.551 167.389 32.485C167.275 32.419 167.134 32.347 166.966 32.269C166.804 32.185 166.609 32.11 166.381 32.044C166.153 31.972 165.883 31.936 165.571 31.936C165.301 31.936 165.058 31.972 164.842 32.044C164.626 32.11 164.44 32.203 164.284 32.323C164.134 32.443 164.017 32.584 163.933 32.746C163.855 32.902 163.816 33.073 163.816 33.259C163.816 33.493 163.882 33.688 164.014 33.844C164.152 34 164.332 34.135 164.554 34.249C164.776 34.363 165.028 34.465 165.31 34.555C165.592 34.639 165.88 34.732 166.174 34.834C166.474 34.93 166.765 35.038 167.047 35.158C167.329 35.278 167.581 35.428 167.803 35.608C168.025 35.788 168.202 36.01 168.334 36.274C168.472 36.532 168.541 36.844 168.541 37.21C168.541 37.63 168.466 38.02 168.316 38.38C168.166 38.734 167.944 39.043 167.65 39.307C167.356 39.565 166.996 39.769 166.57 39.919C166.144 40.069 165.652 40.144 165.094 40.144C164.458 40.144 163.882 40.042 163.366 39.838C162.85 39.628 162.412 39.361 162.052 39.037L162.43 38.425C162.478 38.347 162.535 38.287 162.601 38.245C162.667 38.203 162.751 38.182 162.853 38.182C162.961 38.182 163.075 38.224 163.195 38.308C163.315 38.392 163.459 38.485 163.627 38.587C163.801 38.689 164.011 38.782 164.257 38.866C164.503 38.95 164.809 38.992 165.175 38.992C165.487 38.992 165.76 38.953 165.994 38.875C166.228 38.791 166.423 38.68 166.579 38.542C166.735 38.404 166.849 38.245 166.921 38.065C166.999 37.885 167.038 37.693 167.038 37.489C167.038 37.237 166.969 37.03 166.831 36.868C166.699 36.7 166.522 36.559 166.3 36.445C166.078 36.325 165.823 36.223 165.535 36.139C165.253 36.049 164.962 35.956 164.662 35.86C164.368 35.764 164.077 35.656 163.789 35.536C163.507 35.41 163.255 35.254 163.033 35.068C162.811 34.882 162.631 34.654 162.493 34.384C162.361 34.108 162.295 33.775 162.295 33.385C162.295 33.037 162.367 32.704 162.511 32.386C162.655 32.062 162.865 31.78 163.141 31.54C163.417 31.294 163.756 31.099 164.158 30.955C164.56 30.811 165.019 30.739 165.535 30.739C166.135 30.739 166.672 30.835 167.146 31.027C167.626 31.213 168.04 31.471 168.388 31.801L168.028 32.386Z" fill="#323232"/>
<path d="M35 31.25V14.9167C34.9981 13.3067 33.6933 12.0019 32.0833 12H25.6667V5H24.5V18.4167C24.5 18.7388 24.7612 19 25.0833 19H27.0608L17.5 24.7365L7.93917 19H9.91667C10.2388 19 10.5 18.7388 10.5 18.4167V5H9.33333V12H2.91667C1.30667 12.0019 0.00189583 13.3067 0 14.9167V31.25C0.00189583 32.86 1.30667 34.1648 2.91667 34.1667H12.4728L11.3062 36.5H0.583333C0.261187 36.5 0 36.7612 0 37.0833C0 40 3.07358 40 4.08333 40H30.9167C31.9264 40 35 40 35 37.0833C35 36.7612 34.7388 36.5 34.4167 36.5H23.6938L22.5272 34.1667H32.0833C33.6933 34.1648 34.9981 32.86 35 31.25ZM9.33333 17.8333H5.83333C5.51119 17.8334 5.25007 18.0947 5.25022 18.4169C5.25029 18.6216 5.35755 18.8111 5.53299 18.9167L17.1997 25.9167C17.3845 26.0277 17.6156 26.0277 17.8005 25.9167L29.4672 18.9167C29.7432 18.7506 29.8325 18.3922 29.6665 18.1161C29.5611 17.9407 29.3714 17.8334 29.1667 17.8333H25.6667V15.5H31.5001V29.5H3.5V15.5H9.33333V17.8333ZM33.7627 37.6667C33.5592 38.3848 32.8551 38.8333 30.9167 38.8333H4.08333C2.14492 38.8333 1.44083 38.3848 1.23725 37.6667H33.7627ZM12.6105 36.5L13.7772 34.1667H21.2228L22.3895 36.5H12.6105ZM2.91667 33C1.95016 33 1.16667 32.2165 1.16667 31.25V14.9167C1.16667 13.9502 1.95016 13.1667 2.91667 13.1667H9.33333V14.3333H2.91667C2.59452 14.3333 2.33333 14.5945 2.33333 14.9167V30.0833C2.33333 30.4055 2.59452 30.6667 2.91667 30.6667H32.0833C32.4055 30.6667 32.6667 30.4055 32.6667 30.0833V14.9167C32.6667 14.5945 32.4055 14.3333 32.0833 14.3333H25.6667V13.1667H32.0833C33.0498 13.1667 33.8333 13.9502 33.8333 14.9167V31.25C33.8333 32.2165 33.0498 33 32.0833 33H2.91667Z" fill="#323232"/>
<path d="M20.0451 13.7768C20.9552 13.0608 21.5151 11.9893 21.5834 10.8333C21.5834 6.97629 19.3626 6.16663 17.5 6.16663C15.6374 6.16663 13.4167 6.97629 13.4167 10.8333C13.4844 11.9899 14.0444 13.0621 14.9549 13.7785C13.4087 13.9691 12.2477 15.2836 12.25 16.8416V19H13.4167V16.8416C13.4167 15.7785 14.2785 14.9166 15.3417 14.9166H19.6583C20.7215 14.9166 21.5834 15.7785 21.5834 16.8416V19H22.75V16.8416C22.7532 15.283 21.592 13.9674 20.0451 13.7768ZM14.6137 10.2155C14.7718 8.26079 15.6917 7.33329 17.5 7.33329C19.1555 7.33329 20.0667 8.11613 20.3274 9.74946L18.3838 8.58279C18.1075 8.41705 17.7492 8.50667 17.5834 8.78295C17.5616 8.81941 17.5438 8.85805 17.5303 8.89838C17.2352 9.78388 15.6415 10.1187 14.6137 10.2155ZM17.5 13.75C16.199 13.5284 15.1167 12.6262 14.6644 11.3863V11.3845C15.6631 11.3023 17.4644 11.0001 18.3044 9.89471L20.3893 11.1454C20.1553 12.5757 18.3954 13.75 17.5 13.75Z" fill="#323232"/>
<path d="M29.1663 26V24.8334H27.9997V26H26.833V27.1667H27.9997V28.3334H29.1663V27.1667H30.333V26H29.1663Z" fill="#323232"/>
</svg>
