<svg width="157" height="35" viewBox="0 0 157 35" fill="none" xmlns="http://www.w3.org/2000/svg">
<path d="M77.637 14.556C77.637 15.348 77.745 16.059 77.961 16.689C78.177 17.313 78.483 17.844 78.879 18.282C79.281 18.714 79.764 19.047 80.328 19.281C80.892 19.509 81.519 19.623 82.209 19.623C82.905 19.623 83.535 19.509 84.099 19.281C84.663 19.047 85.143 18.714 85.539 18.282C85.935 17.844 86.241 17.313 86.457 16.689C86.673 16.059 86.781 15.348 86.781 14.556C86.781 13.764 86.673 13.053 86.457 12.423C86.241 11.793 85.935 11.262 85.539 10.83C85.143 10.392 84.663 10.056 84.099 9.822C83.535 9.588 82.905 9.471 82.209 9.471C81.519 9.471 80.892 9.588 80.328 9.822C79.764 10.056 79.281 10.392 78.879 10.83C78.483 11.262 78.177 11.793 77.961 12.423C77.745 13.053 77.637 13.764 77.637 14.556ZM89.166 23.664H87.726C87.51 23.664 87.318 23.634 87.15 23.574C86.982 23.514 86.829 23.409 86.691 23.259L84.432 20.793C83.748 21.021 83.007 21.135 82.209 21.135C81.261 21.135 80.397 20.976 79.617 20.658C78.837 20.334 78.168 19.881 77.61 19.299C77.052 18.717 76.62 18.024 76.314 17.22C76.008 16.41 75.855 15.522 75.855 14.556C75.855 13.59 76.008 12.705 76.314 11.901C76.62 11.091 77.052 10.395 77.61 9.813C78.168 9.225 78.837 8.769 79.617 8.445C80.397 8.121 81.261 7.959 82.209 7.959C83.157 7.959 84.021 8.121 84.801 8.445C85.587 8.769 86.259 9.225 86.817 9.813C87.375 10.395 87.807 11.091 88.113 11.901C88.419 12.705 88.572 13.59 88.572 14.556C88.572 15.162 88.509 15.738 88.383 16.284C88.263 16.83 88.086 17.34 87.852 17.814C87.618 18.282 87.333 18.708 86.997 19.092C86.661 19.476 86.283 19.809 85.863 20.091L89.166 23.664ZM98.0394 11.883V21H97.0854C96.8574 21 96.7134 20.889 96.6534 20.667L96.5274 19.686C96.1314 20.124 95.6874 20.478 95.1954 20.748C94.7034 21.012 94.1394 21.144 93.5034 21.144C93.0054 21.144 92.5644 21.063 92.1804 20.901C91.8024 20.733 91.4844 20.499 91.2264 20.199C90.9684 19.899 90.7734 19.536 90.6414 19.11C90.5154 18.684 90.4524 18.213 90.4524 17.697V11.883H92.0544V17.697C92.0544 18.387 92.2104 18.921 92.5224 19.299C92.8404 19.677 93.3234 19.866 93.9714 19.866C94.4454 19.866 94.8864 19.755 95.2944 19.533C95.7084 19.305 96.0894 18.993 96.4374 18.597V11.883H98.0394ZM106.682 15.447C106.682 15.075 106.628 14.736 106.52 14.43C106.418 14.118 106.265 13.851 106.061 13.629C105.863 13.401 105.62 13.227 105.332 13.107C105.044 12.981 104.717 12.918 104.351 12.918C103.583 12.918 102.974 13.143 102.524 13.593C102.08 14.037 101.804 14.655 101.696 15.447H106.682ZM107.978 19.722C107.78 19.962 107.543 20.172 107.267 20.352C106.991 20.526 106.694 20.67 106.376 20.784C106.064 20.898 105.74 20.982 105.404 21.036C105.068 21.096 104.735 21.126 104.405 21.126C103.775 21.126 103.193 21.021 102.659 20.811C102.131 20.595 101.672 20.283 101.282 19.875C100.898 19.461 100.598 18.951 100.382 18.345C100.166 17.739 100.058 17.043 100.058 16.257C100.058 15.621 100.154 15.027 100.346 14.475C100.544 13.923 100.826 13.446 101.192 13.044C101.558 12.636 102.005 12.318 102.533 12.09C103.061 11.856 103.655 11.739 104.315 11.739C104.861 11.739 105.365 11.832 105.827 12.018C106.295 12.198 106.697 12.462 107.033 12.81C107.375 13.152 107.642 13.578 107.834 14.088C108.026 14.592 108.122 15.168 108.122 15.816C108.122 16.068 108.095 16.236 108.041 16.32C107.987 16.404 107.885 16.446 107.735 16.446H101.642C101.66 17.022 101.738 17.523 101.876 17.949C102.02 18.375 102.218 18.732 102.47 19.02C102.722 19.302 103.022 19.515 103.37 19.659C103.718 19.797 104.108 19.866 104.54 19.866C104.942 19.866 105.287 19.821 105.575 19.731C105.869 19.635 106.121 19.533 106.331 19.425C106.541 19.317 106.715 19.218 106.853 19.128C106.997 19.032 107.12 18.984 107.222 18.984C107.354 18.984 107.456 19.035 107.528 19.137L107.978 19.722ZM110.089 21V11.883H111.052C111.28 11.883 111.421 11.994 111.475 12.216L111.592 13.152C111.928 12.738 112.306 12.399 112.726 12.135C113.146 11.871 113.632 11.739 114.184 11.739C114.796 11.739 115.291 11.91 115.669 12.252C116.053 12.594 116.329 13.056 116.497 13.638C116.629 13.308 116.797 13.023 117.001 12.783C117.211 12.543 117.445 12.345 117.703 12.189C117.961 12.033 118.234 11.919 118.522 11.847C118.816 11.775 119.113 11.739 119.413 11.739C119.893 11.739 120.319 11.817 120.691 11.973C121.069 12.123 121.387 12.345 121.645 12.639C121.909 12.933 122.11 13.296 122.248 13.728C122.386 14.154 122.455 14.643 122.455 15.195V21H120.844V15.195C120.844 14.481 120.688 13.941 120.376 13.575C120.064 13.203 119.614 13.017 119.026 13.017C118.762 13.017 118.51 13.065 118.27 13.161C118.036 13.251 117.829 13.386 117.649 13.566C117.469 13.746 117.325 13.974 117.217 14.25C117.115 14.52 117.064 14.835 117.064 15.195V21H115.453V15.195C115.453 14.463 115.306 13.917 115.012 13.557C114.718 13.197 114.289 13.017 113.725 13.017C113.329 13.017 112.963 13.125 112.627 13.341C112.291 13.551 111.982 13.839 111.7 14.205V21H110.089ZM134.806 13.386C134.734 13.518 134.623 13.584 134.473 13.584C134.383 13.584 134.281 13.551 134.167 13.485C134.053 13.419 133.912 13.347 133.744 13.269C133.582 13.185 133.387 13.11 133.159 13.044C132.931 12.972 132.661 12.936 132.349 12.936C132.079 12.936 131.836 12.972 131.62 13.044C131.404 13.11 131.218 13.203 131.062 13.323C130.912 13.443 130.795 13.584 130.711 13.746C130.633 13.902 130.594 14.073 130.594 14.259C130.594 14.493 130.66 14.688 130.792 14.844C130.93 15 131.11 15.135 131.332 15.249C131.554 15.363 131.806 15.465 132.088 15.555C132.37 15.639 132.658 15.732 132.952 15.834C133.252 15.93 133.543 16.038 133.825 16.158C134.107 16.278 134.359 16.428 134.581 16.608C134.803 16.788 134.98 17.01 135.112 17.274C135.25 17.532 135.319 17.844 135.319 18.21C135.319 18.63 135.244 19.02 135.094 19.38C134.944 19.734 134.722 20.043 134.428 20.307C134.134 20.565 133.774 20.769 133.348 20.919C132.922 21.069 132.43 21.144 131.872 21.144C131.236 21.144 130.66 21.042 130.144 20.838C129.628 20.628 129.19 20.361 128.83 20.037L129.208 19.425C129.256 19.347 129.313 19.287 129.379 19.245C129.445 19.203 129.529 19.182 129.631 19.182C129.739 19.182 129.853 19.224 129.973 19.308C130.093 19.392 130.237 19.485 130.405 19.587C130.579 19.689 130.789 19.782 131.035 19.866C131.281 19.95 131.587 19.992 131.953 19.992C132.265 19.992 132.538 19.953 132.772 19.875C133.006 19.791 133.201 19.68 133.357 19.542C133.513 19.404 133.627 19.245 133.699 19.065C133.777 18.885 133.816 18.693 133.816 18.489C133.816 18.237 133.747 18.03 133.609 17.868C133.477 17.7 133.3 17.559 133.078 17.445C132.856 17.325 132.601 17.223 132.313 17.139C132.031 17.049 131.74 16.956 131.44 16.86C131.146 16.764 130.855 16.656 130.567 16.536C130.285 16.41 130.033 16.254 129.811 16.068C129.589 15.882 129.409 15.654 129.271 15.384C129.139 15.108 129.073 14.775 129.073 14.385C129.073 14.037 129.145 13.704 129.289 13.386C129.433 13.062 129.643 12.78 129.919 12.54C130.195 12.294 130.534 12.099 130.936 11.955C131.338 11.811 131.797 11.739 132.313 11.739C132.913 11.739 133.45 11.835 133.924 12.027C134.404 12.213 134.818 12.471 135.166 12.801L134.806 13.386ZM141.126 11.739C141.792 11.739 142.392 11.85 142.926 12.072C143.46 12.294 143.916 12.609 144.294 13.017C144.672 13.425 144.96 13.92 145.158 14.502C145.362 15.078 145.464 15.723 145.464 16.437C145.464 17.157 145.362 17.805 145.158 18.381C144.96 18.957 144.672 19.449 144.294 19.857C143.916 20.265 143.46 20.58 142.926 20.802C142.392 21.018 141.792 21.126 141.126 21.126C140.454 21.126 139.848 21.018 139.308 20.802C138.774 20.58 138.318 20.265 137.94 19.857C137.562 19.449 137.271 18.957 137.067 18.381C136.869 17.805 136.77 17.157 136.77 16.437C136.77 15.723 136.869 15.078 137.067 14.502C137.271 13.92 137.562 13.425 137.94 13.017C138.318 12.609 138.774 12.294 139.308 12.072C139.848 11.85 140.454 11.739 141.126 11.739ZM141.126 19.875C142.026 19.875 142.698 19.575 143.142 18.975C143.586 18.369 143.808 17.526 143.808 16.446C143.808 15.36 143.586 14.514 143.142 13.908C142.698 13.302 142.026 12.999 141.126 12.999C140.67 12.999 140.271 13.077 139.929 13.233C139.593 13.389 139.311 13.614 139.083 13.908C138.861 14.202 138.693 14.565 138.579 14.997C138.471 15.423 138.417 15.906 138.417 16.446C138.417 17.526 138.639 18.369 139.083 18.975C139.533 19.575 140.214 19.875 141.126 19.875ZM154.993 11.883V21H154.039C153.811 21 153.667 20.889 153.607 20.667L153.481 19.686C153.085 20.124 152.641 20.478 152.149 20.748C151.657 21.012 151.093 21.144 150.457 21.144C149.959 21.144 149.518 21.063 149.134 20.901C148.756 20.733 148.438 20.499 148.18 20.199C147.922 19.899 147.727 19.536 147.595 19.11C147.469 18.684 147.406 18.213 147.406 17.697V11.883H149.008V17.697C149.008 18.387 149.164 18.921 149.476 19.299C149.794 19.677 150.277 19.866 150.925 19.866C151.399 19.866 151.84 19.755 152.248 19.533C152.662 19.305 153.043 18.993 153.391 18.597V11.883H154.993Z" fill="#323232"/>
<path d="M17.5 0C7.84991 0 0 7.84991 0 17.5C0 27.1501 7.84991 35 17.5 35C27.1501 35 35 27.1501 35 17.5C35 7.84991 27.1501 0 17.5 0ZM17.5 33.5417C8.65457 33.5417 1.45831 26.3454 1.45831 17.5C1.45831 8.65457 8.65457 1.45831 17.5 1.45831C26.3454 1.45831 33.5417 8.65457 33.5417 17.5C33.5417 26.3454 26.3454 33.5417 17.5 33.5417Z" fill="#323232"/>
<path d="M17.5007 5.83325C13.4803 5.83325 10.209 9.10452 10.209 13.1249V13.8541C10.209 14.2572 10.5351 14.5833 10.9382 14.5833H13.8549C14.2579 14.5833 14.5841 14.2572 14.5841 13.8541V13.1249C14.5841 11.5171 15.8929 10.2083 17.5007 10.2083C19.1086 10.2083 20.4174 11.5171 20.4174 13.1249C20.4174 14.7328 19.1086 16.0416 17.5007 16.0416C15.8928 16.0416 14.584 17.3504 14.584 18.9583V22.6041C14.584 23.0072 14.9101 23.3333 15.3132 23.3333H18.2299C18.6329 23.3333 18.9591 23.0072 18.9591 22.6041V20.2714C22.3272 19.5892 24.7924 16.6241 24.7924 13.1249C24.7924 9.10459 21.5211 5.83325 17.5007 5.83325ZM18.1487 18.9227C17.7798 18.964 17.5007 19.2759 17.5007 19.6476V21.8749H16.0424V18.9583C16.0424 18.1536 16.6961 17.4999 17.5007 17.4999C19.9132 17.4999 21.8757 15.5375 21.8757 13.1249C21.8757 10.7124 19.9132 8.74994 17.5007 8.74994C15.0881 8.74994 13.1257 10.7124 13.1257 13.1249H11.6674C11.6674 9.90774 14.2835 7.29163 17.5007 7.29163C20.7178 7.29163 23.334 9.90781 23.334 13.1249C23.334 16.1014 21.1052 18.5937 18.1487 18.9227Z" fill="#323232"/>
<path d="M16.7715 24.7917C15.5652 24.7917 14.584 25.773 14.584 26.9792C14.584 28.1855 15.5652 29.1667 16.7715 29.1667C17.9778 29.1667 18.959 28.1855 18.959 26.9792C18.959 25.773 17.9778 24.7917 16.7715 24.7917ZM16.7715 27.7084C16.3699 27.7084 16.0423 27.3808 16.0423 26.9792C16.0423 26.5776 16.3699 26.2501 16.7715 26.2501C17.1731 26.2501 17.5007 26.5776 17.5007 26.9792C17.5007 27.3809 17.1731 27.7084 16.7715 27.7084Z" fill="#323232"/>
</svg>
