<svg width="40" height="38" viewBox="0 0 40 38" fill="none" xmlns="http://www.w3.org/2000/svg">
<path d="M18.75 23.375H12.5C12.1548 23.375 11.875 23.6548 11.875 24V36.5C11.875 36.8452 12.1548 37.125 12.5 37.125H18.75C19.0952 37.125 19.375 36.8452 19.375 36.5V24C19.375 23.6548 19.0952 23.375 18.75 23.375Z" fill="#999898"/>
<path d="M28.75 17.125H22.5C22.1548 17.125 21.875 17.4048 21.875 17.75V36.5C21.875 36.8452 22.1548 37.125 22.5 37.125H28.75C29.0952 37.125 29.375 36.8452 29.375 36.5V17.75C29.375 17.4048 29.0952 17.125 28.75 17.125Z" fill="#999898"/>
<path d="M38.75 10.875H32.5C32.1548 10.875 31.875 11.1548 31.875 11.5V36.5C31.875 36.8452 32.1548 37.125 32.5 37.125H38.75C39.0952 37.125 39.375 36.8452 39.375 36.5V11.5C39.375 11.1548 39.0952 10.875 38.75 10.875Z" fill="#999898"/>
<path d="M21.2445 0.875018C19.1959 0.871226 17.1901 1.46069 15.4693 2.5722C13.7486 3.68371 12.3865 5.26971 11.5476 7.1386C10.7087 9.00749 10.4289 11.0793 10.742 13.1038C11.0551 15.1283 11.9477 17.0188 13.312 18.5469L11.9613 19.8969L11.5188 19.455C11.1672 19.1035 10.6904 18.906 10.1932 18.906C9.69603 18.906 9.21921 19.1035 8.86759 19.455L1.35697 26.9682C0.888288 27.437 0.625 28.0727 0.625 28.7357C0.625 29.3986 0.888288 30.0343 1.35697 30.5032L2.24134 31.3869C2.71016 31.8556 3.34593 32.1189 4.00884 32.1189C4.67175 32.1189 5.30752 31.8556 5.77634 31.3869L13.2895 23.875C13.641 23.5234 13.8384 23.0466 13.8384 22.5494C13.8384 22.0522 13.641 21.5754 13.2895 21.2238L12.8476 20.7813L14.1982 19.4313C15.484 20.5735 17.028 21.3864 18.6975 21.7999C20.3669 22.2133 22.1118 22.2151 23.7821 21.805C25.4524 21.3949 26.998 20.5852 28.2861 19.4455C29.5742 18.3059 30.5662 16.8704 31.1768 15.2625C31.7873 13.6546 31.9982 11.9225 31.7911 10.2151C31.5841 8.50773 30.9655 6.87618 29.9884 5.4608C29.0113 4.04542 27.705 2.88858 26.1819 2.08977C24.6587 1.29095 22.9644 0.874087 21.2445 0.875018ZM4.89259 30.5032C4.65456 30.7306 4.33803 30.8574 4.00884 30.8574C3.67965 30.8574 3.36312 30.7306 3.12509 30.5032L2.24072 29.6194C2.00638 29.385 1.87473 29.0671 1.87473 28.7357C1.87473 28.4042 2.00638 28.0863 2.24072 27.8519L7.98634 22.1063L10.6382 24.7582L4.89259 30.5032ZM12.4057 22.9907L11.522 23.875L8.87009 21.2232L9.75384 20.3394C9.87105 20.2222 10.03 20.1564 10.1957 20.1564C10.3614 20.1564 10.5204 20.2222 10.6376 20.3394L12.4057 22.1075C12.5227 22.2247 12.5884 22.3835 12.5884 22.5491C12.5884 22.7147 12.5227 22.8735 12.4057 22.9907ZM21.2445 20.875C19.3903 20.875 17.5777 20.3252 16.036 19.2951C14.4943 18.2649 13.2927 16.8007 12.5831 15.0877C11.8735 13.3746 11.6879 11.4896 12.0496 9.67105C12.4113 7.85248 13.3042 6.18201 14.6153 4.87089C15.9265 3.55978 17.5969 2.66689 19.4155 2.30516C21.2341 1.94342 23.1191 2.12908 24.8321 2.83865C26.5452 3.54822 28.0094 4.74984 29.0395 6.29155C30.0696 7.83326 30.6195 9.64582 30.6195 11.5C30.6167 13.9856 29.628 16.3685 27.8705 18.126C26.1129 19.8836 23.73 20.8722 21.2445 20.875Z" fill="#323232"/>
<path d="M27.0207 9.64378L24.5207 9.01878C24.3604 8.97983 24.1912 9.00586 24.0499 9.09118C23.9087 9.1765 23.807 9.3142 23.7669 9.47424C23.7268 9.63428 23.7516 9.80368 23.8359 9.9455C23.9202 10.0873 24.0572 10.19 24.217 10.2313L25.5232 10.5582L23.1576 12.5294L19.8113 9.18316C19.7011 9.07284 19.5537 9.00771 19.3979 9.00054C19.2421 8.99337 19.0893 9.04468 18.9694 9.14441L15.2194 12.2694C15.092 12.3755 15.0119 12.5279 14.9967 12.693C14.9816 12.8582 15.0327 13.0226 15.1388 13.15C15.2449 13.2775 15.3973 13.3576 15.5624 13.3727C15.7276 13.3878 15.892 13.3367 16.0194 13.2307L19.3319 10.4707L22.6782 13.8169C22.7884 13.9272 22.9359 13.9924 23.0916 13.9995C23.2474 14.0067 23.4002 13.9554 23.5201 13.8557L26.2451 11.5844V12.75C26.2451 12.9158 26.3109 13.0748 26.4281 13.192C26.5453 13.3092 26.7043 13.375 26.8701 13.375C27.0358 13.375 27.1948 13.3092 27.312 13.192C27.4292 13.0748 27.4951 12.9158 27.4951 12.75V10.25C27.495 10.1105 27.4483 9.97507 27.3623 9.86521C27.2763 9.75535 27.1561 9.6774 27.0207 9.64378Z" fill="#323232"/>
</svg>
