<svg width="105" height="23" viewBox="0 0 105 23" fill="none" xmlns="http://www.w3.org/2000/svg">
<path d="M83.244 7.119C83.19 7.209 83.13 7.278 83.064 7.326C83.004 7.368 82.929 7.389 82.839 7.389C82.737 7.389 82.617 7.338 82.479 7.236C82.341 7.134 82.167 7.023 81.957 6.903C81.753 6.777 81.504 6.663 81.21 6.561C80.922 6.459 80.571 6.408 80.157 6.408C79.767 6.408 79.422 6.462 79.122 6.57C78.828 6.672 78.579 6.813 78.375 6.993C78.177 7.173 78.027 7.386 77.925 7.632C77.823 7.872 77.772 8.133 77.772 8.415C77.772 8.775 77.859 9.075 78.033 9.315C78.213 9.549 78.447 9.75 78.735 9.918C79.029 10.086 79.359 10.233 79.725 10.359C80.097 10.479 80.475 10.605 80.859 10.737C81.249 10.869 81.627 11.019 81.993 11.187C82.365 11.349 82.695 11.556 82.983 11.808C83.277 12.06 83.511 12.369 83.685 12.735C83.865 13.101 83.955 13.551 83.955 14.085C83.955 14.649 83.859 15.18 83.667 15.678C83.475 16.17 83.193 16.599 82.821 16.965C82.455 17.331 82.002 17.619 81.462 17.829C80.928 18.039 80.319 18.144 79.635 18.144C78.795 18.144 78.033 17.994 77.349 17.694C76.665 17.388 76.08 16.977 75.594 16.461L76.098 15.633C76.146 15.567 76.203 15.513 76.269 15.471C76.341 15.423 76.419 15.399 76.503 15.399C76.581 15.399 76.668 15.432 76.764 15.498C76.866 15.558 76.98 15.636 77.106 15.732C77.232 15.828 77.376 15.933 77.538 16.047C77.7 16.161 77.883 16.266 78.087 16.362C78.297 16.458 78.534 16.539 78.798 16.605C79.062 16.665 79.359 16.695 79.689 16.695C80.103 16.695 80.472 16.638 80.796 16.524C81.12 16.41 81.393 16.251 81.615 16.047C81.843 15.837 82.017 15.588 82.137 15.3C82.257 15.012 82.317 14.691 82.317 14.337C82.317 13.947 82.227 13.629 82.047 13.383C81.873 13.131 81.642 12.921 81.354 12.753C81.066 12.585 80.736 12.444 80.364 12.33C79.992 12.21 79.614 12.09 79.23 11.97C78.846 11.844 78.468 11.7 78.096 11.538C77.724 11.376 77.394 11.166 77.106 10.908C76.818 10.65 76.584 10.329 76.404 9.945C76.23 9.555 76.143 9.075 76.143 8.505C76.143 8.049 76.23 7.608 76.404 7.182C76.584 6.756 76.842 6.378 77.178 6.048C77.52 5.718 77.937 5.454 78.429 5.256C78.927 5.058 79.497 4.959 80.139 4.959C80.859 4.959 81.513 5.073 82.101 5.301C82.695 5.529 83.217 5.859 83.667 6.291L83.244 7.119ZM90.8604 13.896C90.1224 13.92 89.4924 13.98 88.9704 14.076C88.4544 14.166 88.0314 14.286 87.7014 14.436C87.3774 14.586 87.1404 14.763 86.9904 14.967C86.8464 15.171 86.7744 15.399 86.7744 15.651C86.7744 15.891 86.8134 16.098 86.8914 16.272C86.9694 16.446 87.0744 16.59 87.2064 16.704C87.3444 16.812 87.5034 16.893 87.6834 16.947C87.8694 16.995 88.0674 17.019 88.2774 17.019C88.5594 17.019 88.8174 16.992 89.0514 16.938C89.2854 16.878 89.5044 16.794 89.7084 16.686C89.9184 16.578 90.1164 16.449 90.3024 16.299C90.4944 16.149 90.6804 15.978 90.8604 15.786V13.896ZM85.6854 10.17C86.1894 9.684 86.7324 9.321 87.3144 9.081C87.8964 8.841 88.5414 8.721 89.2494 8.721C89.7594 8.721 90.2124 8.805 90.6084 8.973C91.0044 9.141 91.3374 9.375 91.6074 9.675C91.8774 9.975 92.0814 10.338 92.2194 10.764C92.3574 11.19 92.4264 11.658 92.4264 12.168V18H91.7154C91.5594 18 91.4394 17.976 91.3554 17.928C91.2714 17.874 91.2054 17.772 91.1574 17.622L90.9774 16.758C90.7374 16.98 90.5034 17.178 90.2754 17.352C90.0474 17.52 89.8074 17.664 89.5554 17.784C89.3034 17.898 89.0334 17.985 88.7454 18.045C88.4634 18.111 88.1484 18.144 87.8004 18.144C87.4464 18.144 87.1134 18.096 86.8014 18C86.4894 17.898 86.2164 17.748 85.9824 17.55C85.7544 17.352 85.5714 17.103 85.4334 16.803C85.3014 16.497 85.2354 16.137 85.2354 15.723C85.2354 15.363 85.3344 15.018 85.5324 14.688C85.7304 14.352 86.0514 14.055 86.4954 13.797C86.9394 13.539 87.5184 13.329 88.2324 13.167C88.9464 12.999 89.8224 12.903 90.8604 12.879V12.168C90.8604 11.46 90.7074 10.926 90.4014 10.566C90.0954 10.2 89.6484 10.017 89.0604 10.017C88.6644 10.017 88.3314 10.068 88.0614 10.17C87.7974 10.266 87.5664 10.377 87.3684 10.503C87.1764 10.623 87.0084 10.734 86.8644 10.836C86.7264 10.932 86.5884 10.98 86.4504 10.98C86.3424 10.98 86.2494 10.953 86.1714 10.899C86.0934 10.839 86.0274 10.767 85.9734 10.683L85.6854 10.17ZM96.5587 8.883V18H94.9567V8.883H96.5587ZM96.9007 6.021C96.9007 6.177 96.8677 6.324 96.8017 6.462C96.7417 6.594 96.6577 6.714 96.5497 6.822C96.4477 6.924 96.3247 7.005 96.1807 7.065C96.0427 7.125 95.8957 7.155 95.7397 7.155C95.5837 7.155 95.4367 7.125 95.2987 7.065C95.1667 7.005 95.0497 6.924 94.9477 6.822C94.8457 6.714 94.7647 6.594 94.7047 6.462C94.6447 6.324 94.6147 6.177 94.6147 6.021C94.6147 5.865 94.6447 5.718 94.7047 5.58C94.7647 5.436 94.8457 5.313 94.9477 5.211C95.0497 5.103 95.1667 5.019 95.2987 4.959C95.4367 4.899 95.5837 4.869 95.7397 4.869C95.8957 4.869 96.0427 4.899 96.1807 4.959C96.3247 5.019 96.4477 5.103 96.5497 5.211C96.6577 5.313 96.7417 5.436 96.8017 5.58C96.8677 5.718 96.9007 5.865 96.9007 6.021ZM100.712 10.71C101 10.086 101.354 9.6 101.774 9.252C102.194 8.898 102.707 8.721 103.313 8.721C103.505 8.721 103.688 8.742 103.862 8.784C104.042 8.826 104.201 8.892 104.339 8.982L104.222 10.179C104.186 10.329 104.096 10.404 103.952 10.404C103.868 10.404 103.745 10.386 103.583 10.35C103.421 10.314 103.238 10.296 103.034 10.296C102.746 10.296 102.488 10.338 102.26 10.422C102.038 10.506 101.837 10.632 101.657 10.8C101.483 10.962 101.324 11.166 101.18 11.412C101.042 11.652 100.916 11.928 100.802 12.24V18H99.1909V8.883H100.109C100.283 8.883 100.403 8.916 100.469 8.982C100.535 9.048 100.58 9.162 100.604 9.324L100.712 10.71Z" fill="#606060"/>
<path d="M23.4642 19.3236C23.3404 19.3236 23.2169 19.2918 23.1061 19.2277C22.8844 19.0998 22.748 18.8632 22.748 18.6074V15.3689H9.56777C9.17221 15.3689 8.85156 15.0481 8.85156 14.6527V10.0682C8.85156 9.67263 9.17221 9.35198 9.56777 9.35198H22.748V6.11357C22.748 5.85774 22.8844 5.62124 23.1061 5.49333C23.3277 5.36534 23.6006 5.36534 23.8223 5.49333L34.6422 11.7403C34.8639 11.8682 35.0003 12.1047 35.0003 12.3605C35.0003 12.6163 34.8639 12.8528 34.6422 12.9807L23.8223 19.2278C23.7115 19.2917 23.5879 19.3236 23.4642 19.3236ZM10.284 13.9365H23.4642C23.8597 13.9365 24.1804 14.2573 24.1804 14.6527V17.3669L32.8517 12.3605L24.1804 7.35404V10.0682C24.1804 10.4637 23.8597 10.7844 23.4642 10.7844H10.284V13.9365Z" fill="#323232"/>
<path d="M19.3131 22.7681H1.22292C0.548615 22.7681 0 22.2195 0 21.5451V3.45493C0 2.78055 0.548615 2.23193 1.22292 2.23193H19.3131C19.9874 2.23193 20.536 2.78055 20.536 3.45493V7.7552C20.536 8.15069 20.2153 8.47141 19.8198 8.47141C19.4243 8.47141 19.1036 8.15069 19.1036 7.7552V3.66435H1.43242V21.3357H19.1036V16.9655C19.1036 16.5701 19.4243 16.2493 19.8198 16.2493C20.2153 16.2493 20.536 16.5701 20.536 16.9655V21.5449C20.536 22.2195 19.9874 22.7681 19.3131 22.7681Z" fill="#323232"/>
</svg>
